<?xml version="1.0" encoding="UTF-8" standalone="no"?>
<!DOCTYPE svg PUBLIC "-//W3C//DTD SVG 1.1//EN" "http://www.w3.org/Graphics/SVG/1.1/DTD/svg11.dtd">
<svg version="1.1" xmlns="http://www.w3.org/2000/svg" xmlns:xlink="http://www.w3.org/1999/xlink" preserveAspectRatio="xMidYMid meet" viewBox="0 0 640 640" width="640" height="640"><defs><path d="M10.19 348.71L10.18 352.34L10.16 355.98L10.15 359.62L10.14 363.28L10.14 366.93L10.13 370.58L10.13 374.22L10.12 377.84L10.12 381.45L10.12 385.03L10.12 388.59L10.12 392.11L10.12 395.59L10.13 399.04L10.13 402.43L10.14 405.78L10.15 409.06L10.16 412.29L10.17 415.45L10.18 418.54L10.2 421.56L10.21 424.5L10.23 427.35L10.25 430.11L10.27 432.78L10.29 435.35L10.31 437.82L10.33 440.18L10.36 442.42L10.38 444.55L10.41 446.56L10.44 448.44L10.47 450.19L10.5 451.8L10.53 453.28L10.57 454.6L10.6 455.78L10.61 456.03L10.62 456.3L10.63 456.59L10.64 456.9L10.65 457.22L10.66 457.56L10.67 457.92L10.68 458.29L10.69 458.67L10.7 459.07L10.71 459.48L10.72 459.91L10.73 460.34L10.75 460.79L10.76 461.25L10.77 461.72L10.79 462.19L10.8 462.68L10.81 463.17L10.83 463.67L10.84 464.18L10.85 464.7L10.87 465.22L10.88 465.75L10.9 466.28L10.91 466.81L10.93 467.35L10.94 467.89L10.96 468.44L10.97 468.98L10.99 469.53L11 470.08L11.02 470.62L11.03 471.17L11.05 471.72L11.06 472.26L11.08 472.8L11.09 473.34L11.11 473.87L11.12 474.4L11.17 476.65L11.23 478.88L11.29 481.09L11.36 483.27L11.42 485.44L11.5 487.58L11.57 489.7L11.65 491.79L11.73 493.86L11.82 495.91L11.91 497.92L12 499.91L12.1 501.87L12.2 503.81L12.3 505.71L12.4 507.59L12.51 509.43L12.62 511.25L12.74 513.03L12.85 514.78L12.97 516.49L13.1 518.17L13.22 519.82L13.35 521.43L13.48 523L13.62 524.54L13.75 526.04L13.89 527.5L14.03 528.93L14.18 530.31L14.32 531.65L14.47 532.96L14.62 534.22L14.77 535.43L14.93 536.61L15.08 537.74L15.24 538.83L15.4 539.87L15.57 540.86L15.73 541.81L15.73 541.83L15.74 541.85L15.74 541.87L15.74 541.9L15.75 541.93L15.76 541.96L15.76 541.99L15.77 542.03L15.78 542.07L15.78 542.12L15.79 542.16L15.8 542.21L15.81 542.26L15.82 542.32L15.83 542.38L15.84 542.44L15.85 542.51L15.86 542.57L15.88 542.65L15.89 542.72L15.9 542.8L15.92 542.88L15.93 542.96L15.94 543.05L15.96 543.14L15.98 543.23L15.99 543.32L16.01 543.42L16.03 543.52L16.05 543.63L16.06 543.73L16.08 543.85L16.1 543.96L16.12 544.08L16.14 544.19L16.17 544.32L16.19 544.44L16.21 544.57L16.23 544.7L16.26 544.84L16.43 544.91L16.61 544.99L16.77 545.06L16.94 545.13L17.1 545.2L17.26 545.27L17.41 545.34L17.56 545.4L17.7 545.46L17.84 545.52L17.98 545.58L18.11 545.64L18.24 545.7L18.37 545.75L18.49 545.8L18.61 545.85L18.72 545.9L18.83 545.95L18.93 546L19.03 546.04L19.13 546.08L19.22 546.12L19.31 546.16L19.4 546.2L19.48 546.23L19.56 546.27L19.63 546.3L19.7 546.33L19.77 546.36L19.83 546.38L19.89 546.41L19.94 546.43L19.99 546.45L20.03 546.47L20.08 546.49L20.11 546.51L20.15 546.52L20.18 546.54L20.2 546.55L20.22 546.56L20.69 546.76L21.14 546.95L21.57 547.14L21.98 547.32L22.39 547.49L22.77 547.65L23.15 547.81L23.52 547.97L23.87 548.11L24.22 548.26L24.56 548.39L24.89 548.53L25.22 548.66L25.54 548.78L25.86 548.9L26.17 549.02L26.49 549.14L26.8 549.25L27.12 549.36L27.43 549.47L27.75 549.58L28.08 549.69L28.4 549.8L28.74 549.91L29.08 550.02L29.43 550.12L29.79 550.23L30.15 550.34L30.53 550.46L30.93 550.57L31.33 550.69L31.75 550.81L32.19 550.93L32.64 551.06L33.11 551.19L33.6 551.33L34.1 551.47L34.63 551.61L35.18 551.76L35.76 551.92L38.51 552.64L41.4 553.36L44.43 554.08L47.59 554.78L50.88 555.48L54.31 556.17L57.87 556.85L61.56 557.52L65.39 558.18L69.35 558.84L73.44 559.48L77.67 560.12L82.04 560.75L86.53 561.38L91.16 561.99L95.92 562.6L100.82 563.2L105.85 563.79L111.02 564.37L116.31 564.94L121.74 565.51L127.31 566.07L133.01 566.62L138.84 567.16L144.8 567.69L150.9 568.21L157.13 568.73L163.5 569.24L170 569.74L176.63 570.23L183.39 570.71L190.29 571.19L197.32 571.66L204.49 572.12L211.79 572.57L219.22 573.01L226.78 573.44L234.48 573.87L242.31 574.29L250.27 574.7L255.1 574.93L260.07 575.17L265.2 575.41L270.47 575.65L275.87 575.88L281.39 576.12L287.04 576.35L292.8 576.58L298.67 576.81L304.63 577.04L310.69 577.26L316.83 577.48L323.05 577.7L329.34 577.92L335.69 578.13L342.11 578.34L348.57 578.55L355.07 578.75L361.61 578.95L368.18 579.15L374.77 579.34L381.37 579.52L387.98 579.7L394.6 579.88L401.2 580.05L407.8 580.21L414.37 580.37L420.92 580.53L427.43 580.68L433.9 580.82L440.32 580.95L446.69 581.08L452.99 581.2L459.23 581.32L465.39 581.42L471.46 581.52L477.45 581.61L483.34 581.7L489.12 581.77L494.79 581.84L498.64 581.88L502.52 581.92L506.42 581.96L510.34 582L514.26 582.04L518.18 582.08L522.09 582.11L525.99 582.15L529.87 582.18L533.73 582.21L537.56 582.24L541.35 582.27L545.09 582.3L548.78 582.33L552.42 582.35L555.99 582.38L559.49 582.4L562.92 582.42L566.27 582.44L569.52 582.46L572.68 582.48L575.74 582.49L578.69 582.5L581.52 582.51L584.24 582.52L586.83 582.53L589.28 582.54L591.59 582.54L593.76 582.54L595.77 582.54L597.63 582.54L599.32 582.53L600.84 582.53L602.18 582.52L603.33 582.51L604.29 582.49L605.06 582.48L605.62 582.46L605.97 582.44L606.11 582.42L606.12 582.32L606.13 582.04L606.15 581.58L606.17 580.95L606.19 580.14L606.22 579.17L606.26 578.03L606.29 576.73L606.33 575.27L606.37 573.66L606.42 571.9L606.47 569.99L606.52 567.94L606.57 565.75L606.63 563.42L606.69 560.97L606.75 558.38L606.82 555.67L606.89 552.84L606.96 549.89L607.03 546.83L607.1 543.65L607.18 540.37L607.26 536.99L607.34 533.51L607.42 529.93L607.51 526.26L607.59 522.5L607.68 518.66L607.77 514.73L607.86 510.73L607.95 506.65L608.04 502.51L608.14 498.3L608.23 494.02L608.33 489.69L608.43 485.3L608.52 480.85L608.62 476.36L608.72 471.83L608.82 467.25L608.93 462.65L609.03 458.02L609.14 453.36L609.24 448.69L609.35 444.01L609.46 439.32L609.56 434.63L609.67 429.94L609.78 425.26L609.88 420.6L609.99 415.95L610.09 411.33L610.2 406.74L610.3 402.18L610.4 397.66L610.5 393.19L610.6 388.76L610.7 384.39L610.8 380.09L610.9 375.84L610.99 371.67L611.09 367.58L611.18 363.56L611.27 359.63L611.36 355.79L611.44 352.05L611.52 348.42L611.61 344.88L611.68 341.46L611.76 338.16L611.83 334.98L611.9 331.93L611.97 329.01L612.04 326.22L612.1 323.58L612.15 321.09L612.21 318.75L612.26 316.57L612.31 314.56L612.35 312.56L612.4 310.42L612.46 308.14L612.51 305.75L612.57 303.22L612.63 300.58L612.69 297.83L612.76 294.96L612.82 291.99L612.89 288.93L612.96 285.76L613.03 282.51L613.11 279.17L613.18 275.75L613.26 272.25L613.34 268.68L613.42 265.04L613.5 261.34L613.58 257.58L613.66 253.77L613.75 249.91L613.83 246L613.92 242.06L614.01 238.08L614.09 234.07L614.18 230.03L614.27 225.98L614.36 221.9L614.44 217.82L614.53 213.73L614.62 209.63L614.71 205.54L614.8 201.46L614.89 197.38L614.97 193.33L615.06 189.29L615.15 185.28L615.23 181.3L615.32 177.35L615.4 173.44L615.41 172.93L615.43 172.31L615.44 171.61L615.46 170.8L615.48 169.91L615.5 168.92L615.52 167.83L615.54 166.65L615.57 165.38L615.6 164.01L615.63 162.55L615.66 161L615.69 159.35L615.73 157.6L615.77 155.76L615.81 153.83L615.85 151.8L615.9 149.68L615.94 147.47L615.99 145.15L616.04 142.75L616.09 140.25L616.15 137.66L616.2 134.97L616.26 132.19L616.32 129.31L616.38 126.34L616.45 123.28L616.51 120.12L616.58 116.87L616.65 113.52L616.72 110.08L616.79 106.54L616.87 102.91L616.95 99.18L617.03 95.37L617.11 91.45L617.19 87.44L617.28 83.34L617.36 79.15L617.05 79.13L616.74 79.11L616.44 79.09L616.15 79.08L615.87 79.06L615.59 79.04L615.32 79.03L615.05 79.01L614.8 79L614.55 78.98L614.3 78.97L614.07 78.96L613.84 78.94L613.62 78.93L613.4 78.92L613.19 78.91L612.99 78.89L612.8 78.88L612.61 78.87L612.43 78.86L612.26 78.85L612.1 78.84L611.94 78.83L611.79 78.83L611.64 78.82L611.5 78.81L611.37 78.8L611.25 78.79L611.13 78.79L611.02 78.78L610.92 78.78L610.83 78.77L610.74 78.76L610.66 78.76L610.58 78.76L610.52 78.75L610.46 78.75L610.41 78.75L610.36 78.74L610.32 78.74L609.9 78.72L609.21 78.7L608.27 78.67L607.09 78.64L605.65 78.6L603.98 78.55L602.08 78.51L599.95 78.45L597.6 78.4L595.03 78.34L592.25 78.27L589.26 78.2L586.07 78.13L582.69 78.05L579.12 77.97L575.36 77.89L571.43 77.8L567.32 77.71L563.05 77.61L558.61 77.51L554.02 77.41L549.27 77.31L544.38 77.2L539.35 77.09L534.18 76.98L528.89 76.87L523.47 76.75L517.93 76.63L512.28 76.51L506.52 76.39L500.66 76.27L494.7 76.14L488.65 76.01L482.51 75.89L476.29 75.76L470 75.62L463.64 75.49L457.21 75.36L450.72 75.22L444.19 75.09L437.57 74.95L430.85 74.81L424.03 74.67L417.13 74.53L410.15 74.38L403.1 74.23L395.99 74.09L388.82 73.94L381.62 73.79L374.38 73.63L367.11 73.48L359.82 73.33L352.53 73.18L345.23 73.03L337.95 72.87L330.68 72.72L323.43 72.57L316.22 72.42L309.05 72.26L301.93 72.11L294.86 71.97L287.87 71.82L280.95 71.67L274.12 71.53L267.38 71.39L260.75 71.25L254.22 71.11L247.81 70.97L241.53 70.84L235.39 70.71L229.39 70.58L223.55 70.45L217.86 70.33L212.35 70.22L207.02 70.1L201.87 69.99L196.92 69.88L192.17 69.78L187.64 69.68L183.33 69.59L179.13 69.5L174.91 69.41L170.68 69.32L166.45 69.23L162.22 69.13L157.99 69.04L153.78 68.95L149.57 68.86L145.39 68.77L141.22 68.68L137.09 68.59L132.98 68.51L128.91 68.42L124.88 68.33L120.9 68.25L116.96 68.17L113.08 68.08L109.25 68L105.49 67.92L101.79 67.84L98.16 67.77L94.61 67.69L91.14 67.62L87.75 67.55L84.46 67.48L81.25 67.41L78.14 67.35L75.14 67.29L72.24 67.23L69.45 67.17L66.78 67.12L64.23 67.07L61.8 67.02L59.5 66.97L57.33 66.93L55.3 66.89L53.41 66.86L51.67 66.82L50.08 66.79L48.64 66.77L48.46 66.77L48.25 66.76L48 66.76L47.72 66.75L47.41 66.75L47.06 66.74L46.69 66.73L46.27 66.73L45.83 66.72L45.35 66.71L44.84 66.7L44.3 66.69L43.72 66.68L43.11 66.67L42.47 66.66L41.8 66.65L41.09 66.64L40.35 66.62L39.57 66.61L38.77 66.6L37.93 66.58L37.05 66.57L36.15 66.55L35.21 66.53L34.24 66.52L33.24 66.5L32.2 66.48L31.13 66.46L30.03 66.44L28.89 66.42L27.72 66.4L26.52 66.38L25.28 66.36L24.02 66.34L22.72 66.32L21.38 66.29L20.02 66.27L18.62 66.24L17.18 66.22L15.72 66.19L14.99 90.07L14.77 99.84L14.55 109.43L14.34 118.83L14.14 128.05L13.94 137.08L13.75 145.94L13.56 154.61L13.38 163.09L13.2 171.4L13.02 179.52L12.86 187.46L12.69 195.21L12.54 202.78L12.38 210.17L12.24 217.37L12.1 224.4L11.96 231.23L11.83 237.89L11.7 244.36L11.58 250.65L11.46 256.76L11.35 262.68L11.25 268.42L11.15 273.98L11.05 279.35L10.96 284.54L10.88 289.55L10.8 294.37L10.72 299.01L10.65 303.47L10.59 307.74L10.53 311.84L10.47 315.74L10.42 319.47L10.38 323.01L10.34 326.37L10.31 329.55L10.28 332.54L10.26 335.35L10.24 337.97L10.22 341.53L10.21 345.11L10.21 345.11L10.19 348.71Z" id="bEX48hV8r"></path><path d="" id="aCSBOyvxE"></path><path d="M16.09 28.48L617.72 38.98L616.91 85.19L15.28 74.68L16.09 28.48Z" id="d12xwJz4wV"></path><path d="M84.71 560.16L54.46 556.03L29.7 549.84L18.01 545.72L15.26 534.72L13.2 523.72L13.2 502.4L11.14 474.21L84.71 560.16Z" id="c2Yq3iw0KI"></path></defs><g><g><g><g><filter id="shadow9015928" x="-16.88" y="39.19" width="661.25" height="584.35" filterUnits="userSpaceOnUse" primitiveUnits="userSpaceOnUse"><feFlood></feFlood><feComposite in2="SourceAlpha" operator="in"></feComposite><feGaussianBlur stdDeviation="2"></feGaussianBlur><feOffset dx="0" dy="14" result="afterOffset"></feOffset><feFlood flood-color="#000000" flood-opacity="0.5"></feFlood><feComposite in2="afterOffset" operator="in"></feComposite><feMorphology operator="dilate" radius="0"></feMorphology><feComposite in2="SourceAlpha" operator="out"></feComposite></filter><path d="M10.19 348.71L10.18 352.34L10.16 355.98L10.15 359.62L10.14 363.28L10.14 366.93L10.13 370.58L10.13 374.22L10.12 377.84L10.12 381.45L10.12 385.03L10.12 388.59L10.12 392.11L10.12 395.59L10.13 399.04L10.13 402.43L10.14 405.78L10.15 409.06L10.16 412.29L10.17 415.45L10.18 418.54L10.2 421.56L10.21 424.5L10.23 427.35L10.25 430.11L10.27 432.78L10.29 435.35L10.31 437.82L10.33 440.18L10.36 442.42L10.38 444.55L10.41 446.56L10.44 448.44L10.47 450.19L10.5 451.8L10.53 453.28L10.57 454.6L10.6 455.78L10.61 456.03L10.62 456.3L10.63 456.59L10.64 456.9L10.65 457.22L10.66 457.56L10.67 457.92L10.68 458.29L10.69 458.67L10.7 459.07L10.71 459.48L10.72 459.91L10.73 460.34L10.75 460.79L10.76 461.25L10.77 461.72L10.79 462.19L10.8 462.68L10.81 463.17L10.83 463.67L10.84 464.18L10.85 464.7L10.87 465.22L10.88 465.75L10.9 466.28L10.91 466.81L10.93 467.35L10.94 467.89L10.96 468.44L10.97 468.98L10.99 469.53L11 470.08L11.02 470.62L11.03 471.17L11.05 471.72L11.06 472.26L11.08 472.8L11.09 473.34L11.11 473.87L11.12 474.4L11.17 476.65L11.23 478.88L11.29 481.09L11.36 483.27L11.42 485.44L11.5 487.58L11.57 489.7L11.65 491.79L11.73 493.86L11.82 495.91L11.91 497.92L12 499.91L12.1 501.87L12.2 503.81L12.3 505.71L12.4 507.59L12.51 509.43L12.62 511.25L12.74 513.03L12.85 514.78L12.97 516.49L13.1 518.17L13.22 519.82L13.35 521.43L13.48 523L13.62 524.54L13.75 526.04L13.89 527.5L14.03 528.93L14.18 530.31L14.32 531.65L14.47 532.96L14.62 534.22L14.77 535.43L14.93 536.61L15.08 537.74L15.24 538.83L15.4 539.87L15.57 540.86L15.73 541.81L15.73 541.83L15.74 541.85L15.74 541.87L15.74 541.9L15.75 541.93L15.76 541.96L15.76 541.99L15.77 542.03L15.78 542.07L15.78 542.12L15.79 542.16L15.8 542.21L15.81 542.26L15.82 542.32L15.83 542.38L15.84 542.44L15.85 542.51L15.86 542.57L15.88 542.65L15.89 542.72L15.9 542.8L15.92 542.88L15.93 542.96L15.94 543.05L15.96 543.14L15.98 543.23L15.99 543.32L16.01 543.42L16.03 543.52L16.05 543.63L16.06 543.73L16.08 543.85L16.1 543.96L16.12 544.08L16.14 544.19L16.17 544.32L16.19 544.44L16.21 544.57L16.23 544.7L16.26 544.84L16.43 544.91L16.61 544.99L16.77 545.06L16.94 545.13L17.1 545.2L17.26 545.27L17.41 545.34L17.56 545.4L17.7 545.46L17.84 545.52L17.98 545.58L18.11 545.64L18.24 545.7L18.37 545.75L18.49 545.8L18.61 545.85L18.72 545.9L18.83 545.95L18.93 546L19.03 546.04L19.13 546.08L19.22 546.12L19.31 546.16L19.4 546.2L19.48 546.23L19.56 546.27L19.63 546.3L19.7 546.33L19.77 546.36L19.83 546.38L19.89 546.41L19.94 546.43L19.99 546.45L20.03 546.47L20.08 546.49L20.11 546.51L20.15 546.52L20.18 546.54L20.2 546.55L20.22 546.56L20.69 546.76L21.14 546.95L21.57 547.14L21.98 547.32L22.39 547.49L22.77 547.65L23.15 547.81L23.52 547.97L23.87 548.11L24.22 548.26L24.56 548.39L24.89 548.53L25.22 548.66L25.54 548.78L25.86 548.9L26.17 549.02L26.49 549.14L26.8 549.25L27.12 549.36L27.43 549.47L27.75 549.58L28.08 549.69L28.4 549.8L28.74 549.91L29.08 550.02L29.43 550.12L29.79 550.23L30.15 550.34L30.53 550.46L30.93 550.57L31.33 550.69L31.75 550.81L32.19 550.93L32.64 551.06L33.11 551.19L33.6 551.33L34.1 551.47L34.63 551.61L35.18 551.76L35.76 551.92L38.51 552.64L41.4 553.36L44.43 554.08L47.59 554.78L50.88 555.48L54.31 556.17L57.87 556.85L61.56 557.52L65.39 558.18L69.35 558.84L73.44 559.48L77.67 560.12L82.04 560.75L86.53 561.38L91.16 561.99L95.92 562.6L100.82 563.2L105.85 563.79L111.02 564.37L116.31 564.94L121.74 565.51L127.31 566.07L133.01 566.62L138.84 567.16L144.8 567.69L150.9 568.21L157.13 568.73L163.5 569.24L170 569.74L176.63 570.23L183.39 570.71L190.29 571.19L197.32 571.66L204.49 572.12L211.79 572.57L219.22 573.01L226.78 573.44L234.48 573.87L242.31 574.29L250.27 574.7L255.1 574.93L260.07 575.17L265.2 575.41L270.47 575.65L275.87 575.88L281.39 576.12L287.04 576.35L292.8 576.58L298.67 576.81L304.63 577.04L310.69 577.26L316.83 577.48L323.05 577.7L329.34 577.92L335.69 578.13L342.11 578.34L348.57 578.55L355.07 578.75L361.61 578.95L368.18 579.15L374.77 579.34L381.37 579.52L387.98 579.7L394.6 579.88L401.2 580.05L407.8 580.21L414.37 580.37L420.92 580.53L427.43 580.68L433.9 580.82L440.32 580.95L446.69 581.08L452.99 581.2L459.23 581.32L465.39 581.42L471.46 581.52L477.45 581.61L483.34 581.7L489.12 581.77L494.79 581.84L498.64 581.88L502.52 581.92L506.42 581.96L510.34 582L514.26 582.04L518.18 582.08L522.09 582.11L525.99 582.15L529.87 582.18L533.73 582.21L537.56 582.24L541.35 582.27L545.09 582.3L548.78 582.33L552.42 582.35L555.99 582.38L559.49 582.4L562.92 582.42L566.27 582.44L569.52 582.46L572.68 582.48L575.74 582.49L578.69 582.5L581.52 582.51L584.24 582.52L586.83 582.53L589.28 582.54L591.59 582.54L593.76 582.54L595.77 582.54L597.63 582.54L599.32 582.53L600.84 582.53L602.18 582.52L603.33 582.51L604.29 582.49L605.06 582.48L605.62 582.46L605.97 582.44L606.11 582.42L606.12 582.32L606.13 582.04L606.15 581.58L606.17 580.95L606.19 580.14L606.22 579.17L606.26 578.03L606.29 576.73L606.33 575.27L606.37 573.66L606.42 571.9L606.47 569.99L606.52 567.94L606.57 565.75L606.63 563.42L606.69 560.97L606.75 558.38L606.82 555.67L606.89 552.84L606.96 549.89L607.03 546.83L607.1 543.65L607.18 540.37L607.26 536.99L607.34 533.51L607.42 529.93L607.51 526.26L607.59 522.5L607.68 518.66L607.77 514.73L607.86 510.73L607.95 506.65L608.04 502.51L608.14 498.3L608.23 494.02L608.33 489.69L608.43 485.3L608.52 480.85L608.62 476.36L608.72 471.83L608.82 467.25L608.93 462.65L609.03 458.02L609.14 453.36L609.24 448.69L609.35 444.01L609.46 439.32L609.56 434.63L609.67 429.94L609.78 425.26L609.88 420.6L609.99 415.95L610.09 411.33L610.2 406.74L610.3 402.18L610.4 397.66L610.5 393.19L610.6 388.76L610.7 384.39L610.8 380.09L610.9 375.84L610.99 371.67L611.09 367.58L611.18 363.56L611.27 359.63L611.36 355.79L611.44 352.05L611.52 348.42L611.61 344.88L611.68 341.46L611.76 338.16L611.83 334.98L611.9 331.93L611.97 329.01L612.04 326.22L612.1 323.58L612.15 321.09L612.21 318.75L612.26 316.57L612.31 314.56L612.35 312.56L612.4 310.42L612.46 308.14L612.51 305.75L612.57 303.22L612.63 300.58L612.69 297.83L612.76 294.96L612.82 291.99L612.89 288.93L612.96 285.76L613.03 282.51L613.11 279.17L613.18 275.75L613.26 272.25L613.34 268.68L613.42 265.04L613.5 261.34L613.58 257.58L613.66 253.77L613.75 249.91L613.83 246L613.92 242.06L614.01 238.08L614.09 234.07L614.18 230.03L614.27 225.98L614.36 221.9L614.44 217.82L614.53 213.73L614.62 209.63L614.71 205.54L614.8 201.46L614.89 197.38L614.97 193.33L615.06 189.29L615.15 185.28L615.23 181.3L615.32 177.35L615.4 173.44L615.41 172.93L615.43 172.31L615.44 171.61L615.46 170.8L615.48 169.91L615.5 168.92L615.52 167.83L615.54 166.65L615.57 165.38L615.6 164.01L615.63 162.55L615.66 161L615.69 159.35L615.73 157.6L615.77 155.76L615.81 153.83L615.85 151.8L615.9 149.68L615.94 147.47L615.99 145.15L616.04 142.75L616.09 140.25L616.15 137.66L616.2 134.97L616.26 132.19L616.32 129.31L616.38 126.34L616.45 123.28L616.51 120.12L616.58 116.87L616.65 113.52L616.72 110.08L616.79 106.54L616.87 102.91L616.95 99.18L617.03 95.37L617.11 91.45L617.19 87.44L617.28 83.34L617.36 79.15L617.05 79.13L616.74 79.11L616.44 79.09L616.15 79.08L615.87 79.06L615.59 79.04L615.32 79.03L615.05 79.01L614.8 79L614.55 78.98L614.3 78.97L614.07 78.96L613.84 78.94L613.62 78.93L613.4 78.92L613.19 78.91L612.99 78.89L612.8 78.88L612.61 78.87L612.43 78.86L612.26 78.85L612.1 78.84L611.94 78.83L611.79 78.83L611.64 78.82L611.5 78.81L611.37 78.8L611.25 78.79L611.13 78.79L611.02 78.78L610.92 78.78L610.83 78.77L610.74 78.76L610.66 78.76L610.58 78.76L610.52 78.75L610.46 78.75L610.41 78.75L610.36 78.74L610.32 78.74L609.9 78.72L609.21 78.7L608.27 78.67L607.09 78.64L605.65 78.6L603.98 78.55L602.08 78.51L599.95 78.45L597.6 78.4L595.03 78.34L592.25 78.27L589.26 78.2L586.07 78.13L582.69 78.05L579.12 77.97L575.36 77.89L571.43 77.8L567.32 77.71L563.05 77.61L558.61 77.51L554.02 77.41L549.27 77.31L544.38 77.2L539.35 77.09L534.18 76.98L528.89 76.87L523.47 76.75L517.93 76.63L512.28 76.51L506.52 76.39L500.66 76.27L494.7 76.14L488.65 76.01L482.51 75.89L476.29 75.76L470 75.62L463.64 75.49L457.21 75.36L450.72 75.22L444.19 75.09L437.57 74.95L430.85 74.81L424.03 74.67L417.13 74.53L410.15 74.38L403.1 74.23L395.99 74.09L388.82 73.94L381.62 73.79L374.38 73.63L367.11 73.48L359.82 73.33L352.53 73.18L345.23 73.03L337.95 72.87L330.68 72.72L323.43 72.57L316.22 72.42L309.05 72.26L301.93 72.11L294.86 71.97L287.87 71.82L280.95 71.67L274.12 71.53L267.38 71.39L260.75 71.25L254.22 71.11L247.81 70.97L241.53 70.84L235.39 70.71L229.39 70.58L223.55 70.45L217.86 70.33L212.35 70.22L207.02 70.1L201.87 69.99L196.92 69.88L192.17 69.78L187.64 69.68L183.33 69.59L179.13 69.5L174.91 69.41L170.68 69.32L166.45 69.23L162.22 69.13L157.99 69.04L153.78 68.95L149.57 68.86L145.39 68.77L141.22 68.68L137.09 68.59L132.98 68.51L128.91 68.42L124.88 68.33L120.9 68.25L116.96 68.17L113.08 68.08L109.25 68L105.49 67.92L101.79 67.84L98.16 67.77L94.61 67.69L91.14 67.62L87.75 67.55L84.46 67.48L81.25 67.41L78.14 67.35L75.14 67.29L72.24 67.23L69.45 67.17L66.78 67.12L64.23 67.07L61.8 67.02L59.5 66.97L57.33 66.93L55.3 66.89L53.41 66.86L51.67 66.82L50.08 66.79L48.64 66.77L48.46 66.77L48.25 66.76L48 66.76L47.72 66.75L47.41 66.75L47.06 66.74L46.69 66.73L46.27 66.73L45.83 66.72L45.35 66.71L44.84 66.7L44.3 66.69L43.72 66.68L43.11 66.67L42.47 66.66L41.8 66.65L41.09 66.64L40.35 66.62L39.57 66.61L38.77 66.6L37.93 66.58L37.05 66.57L36.15 66.55L35.21 66.53L34.24 66.52L33.24 66.5L32.2 66.48L31.13 66.46L30.03 66.44L28.89 66.42L27.72 66.4L26.52 66.38L25.28 66.36L24.02 66.34L22.72 66.32L21.38 66.29L20.02 66.27L18.62 66.24L17.18 66.22L15.72 66.19L14.99 90.07L14.77 99.84L14.55 109.43L14.34 118.83L14.14 128.05L13.94 137.08L13.75 145.94L13.56 154.61L13.38 163.09L13.2 171.4L13.02 179.52L12.86 187.46L12.69 195.21L12.54 202.78L12.38 210.17L12.24 217.37L12.1 224.4L11.96 231.23L11.83 237.89L11.7 244.36L11.58 250.65L11.46 256.76L11.35 262.68L11.25 268.42L11.15 273.98L11.05 279.35L10.96 284.54L10.88 289.55L10.8 294.37L10.72 299.01L10.65 303.47L10.59 307.74L10.53 311.84L10.47 315.74L10.42 319.47L10.38 323.01L10.34 326.37L10.31 329.55L10.28 332.54L10.26 335.35L10.24 337.97L10.22 341.53L10.21 345.11L10.21 345.11L10.19 348.71Z" id="d9B7po17D" fill="white" fill-opacity="1" filter="url(#shadow9015928)"></path></g><use xlink:href="#bEX48hV8r" opacity="1" fill="#ff7272" fill-opacity="1"></use><g><use xlink:href="#bEX48hV8r" opacity="1" fill-opacity="0" stroke="#000000" stroke-width="1" stroke-opacity="0"></use></g></g><g><g><use xlink:href="#aCSBOyvxE" opacity="1" fill-opacity="0" stroke="#000000" stroke-width="1" stroke-opacity="1"></use></g></g><g><g><filter id="shadow5723425" x="8.28" y="21.48" width="616.44" height="70.71" filterUnits="userSpaceOnUse" primitiveUnits="userSpaceOnUse"><feFlood></feFlood><feComposite in2="SourceAlpha" operator="in"></feComposite><feGaussianBlur stdDeviation="1"></feGaussianBlur><feOffset dx="0" dy="0" result="afterOffset"></feOffset><feFlood flood-color="#000000" flood-opacity="0.5"></feFlood><feComposite in2="afterOffset" operator="in"></feComposite><feMorphology operator="dilate" radius="0"></feMorphology><feComposite in2="SourceAlpha" operator="out"></feComposite></filter><path d="M16.09 28.48L617.72 38.98L616.91 85.19L15.28 74.68L16.09 28.48Z" id="a2deeFfOgK" fill="white" fill-opacity="1" filter="url(#shadow5723425)"></path></g><use xlink:href="#d12xwJz4wV" opacity="1" fill="#ff6c6c" fill-opacity="1"></use></g><g><use xlink:href="#c2Yq3iw0KI" opacity="0.02" fill="#575200" fill-opacity="1"></use><g><use xlink:href="#c2Yq3iw0KI" opacity="0.02" fill-opacity="0" stroke="#716a00" stroke-width="0" stroke-opacity="1"></use></g></g></g></g></svg>