<?xml version="1.0" encoding="UTF-8" standalone="no"?>
<!DOCTYPE svg PUBLIC "-//W3C//DTD SVG 1.1//EN" "http://www.w3.org/Graphics/SVG/1.1/DTD/svg11.dtd">
<svg version="1.1" xmlns="http://www.w3.org/2000/svg" xmlns:xlink="http://www.w3.org/1999/xlink" preserveAspectRatio="xMidYMid meet" viewBox="0 0 640 640" width="640" height="640"><defs><path d="M19.61 360.74L19.73 364.36L19.84 367.99L19.96 371.64L20.08 375.29L20.2 378.94L20.32 382.59L20.44 386.22L20.56 389.85L20.68 393.45L20.81 397.03L20.93 400.59L21.06 404.11L21.18 407.59L21.31 411.03L21.43 414.42L21.55 417.76L21.68 421.05L21.8 424.28L21.92 427.43L22.04 430.52L22.16 433.54L22.28 436.47L22.4 439.32L22.51 442.08L22.62 444.75L22.73 447.32L22.84 449.78L22.95 452.14L23.05 454.38L23.15 456.51L23.25 458.52L23.34 460.39L23.43 462.14L23.52 463.75L23.61 465.22L23.69 466.55L23.76 467.72L23.78 467.97L23.8 468.25L23.82 468.53L23.83 468.84L23.86 469.16L23.88 469.5L23.9 469.86L23.92 470.23L23.95 470.61L23.97 471.01L24 471.42L24.03 471.84L24.05 472.28L24.08 472.72L24.11 473.18L24.14 473.65L24.17 474.12L24.2 474.61L24.23 475.1L24.26 475.6L24.29 476.11L24.33 476.63L24.36 477.15L24.39 477.67L24.42 478.2L24.46 478.74L24.49 479.28L24.52 479.82L24.56 480.36L24.59 480.91L24.63 481.45L24.66 482L24.69 482.54L24.73 483.09L24.76 483.63L24.8 484.18L24.83 484.71L24.86 485.25L24.9 485.78L24.93 486.31L25.06 488.56L25.19 490.78L25.33 492.99L25.47 495.17L25.62 497.33L25.76 499.47L25.91 501.59L26.07 503.68L26.22 505.74L26.38 507.78L26.54 509.79L26.7 511.78L26.86 513.74L27.03 515.67L27.2 517.57L27.37 519.44L27.54 521.28L27.72 523.08L27.89 524.86L28.07 526.6L28.25 528.31L28.43 529.99L28.62 531.63L28.8 533.23L28.99 534.8L29.17 536.34L29.36 537.83L29.55 539.29L29.74 540.71L29.93 542.08L30.13 543.42L30.32 544.72L30.51 545.97L30.71 547.18L30.9 548.35L31.1 549.48L31.3 550.56L31.49 551.59L31.69 552.58L31.89 553.52L31.89 553.54L31.9 553.56L31.9 553.58L31.91 553.61L31.91 553.64L31.92 553.67L31.93 553.7L31.93 553.74L31.94 553.78L31.95 553.82L31.96 553.87L31.97 553.92L31.98 553.97L31.99 554.03L32.01 554.09L32.02 554.15L32.03 554.21L32.05 554.28L32.06 554.35L32.08 554.42L32.09 554.5L32.11 554.58L32.13 554.66L32.15 554.75L32.16 554.84L32.18 554.93L32.2 555.02L32.22 555.12L32.25 555.22L32.27 555.33L32.29 555.43L32.31 555.54L32.34 555.66L32.36 555.77L32.39 555.89L32.41 556.01L32.44 556.14L32.46 556.26L32.49 556.39L32.52 556.53L32.7 556.6L32.87 556.67L33.05 556.73L33.21 556.8L33.38 556.86L33.53 556.93L33.69 556.99L33.84 557.05L33.99 557.1L34.13 557.16L34.27 557.21L34.4 557.27L34.53 557.32L34.66 557.37L34.78 557.42L34.9 557.46L35.02 557.51L35.13 557.55L35.24 557.59L35.34 557.63L35.44 557.67L35.53 557.71L35.62 557.74L35.71 557.78L35.79 557.81L35.87 557.84L35.94 557.87L36.01 557.9L36.08 557.92L36.14 557.95L36.2 557.97L36.26 557.99L36.31 558.01L36.35 558.03L36.39 558.05L36.43 558.06L36.47 558.08L36.5 558.09L36.52 558.1L36.55 558.11L37.02 558.29L37.47 558.47L37.91 558.64L38.33 558.81L38.74 558.96L39.13 559.12L39.51 559.26L39.89 559.4L40.25 559.54L40.6 559.67L40.94 559.79L41.28 559.91L41.61 560.03L41.94 560.14L42.26 560.26L42.58 560.36L42.9 560.47L43.21 560.57L43.53 560.67L43.85 560.77L44.18 560.87L44.5 560.97L44.83 561.06L45.17 561.16L45.52 561.26L45.87 561.35L46.23 561.45L46.6 561.55L46.99 561.65L47.38 561.75L47.79 561.85L48.21 561.96L48.65 562.06L49.11 562.18L49.58 562.29L50.08 562.41L50.59 562.53L51.12 562.66L51.68 562.79L52.26 562.92L55.04 563.55L57.95 564.17L61 564.78L64.18 565.37L67.49 565.95L70.94 566.52L74.52 567.08L78.24 567.62L82.09 568.15L86.07 568.67L90.18 569.17L94.43 569.66L98.81 570.14L103.33 570.6L107.98 571.06L112.76 571.5L117.67 571.92L122.72 572.34L127.9 572.74L133.22 573.13L138.67 573.51L144.25 573.87L149.96 574.22L155.81 574.56L161.79 574.88L167.9 575.19L174.14 575.49L180.52 575.78L187.04 576.05L193.68 576.31L200.46 576.56L207.37 576.79L214.41 577.01L221.59 577.22L228.9 577.42L236.34 577.6L243.92 577.77L251.62 577.93L259.46 578.07L267.44 578.2L272.27 578.27L277.25 578.34L282.38 578.39L287.65 578.45L293.06 578.49L298.59 578.53L304.24 578.57L310 578.6L315.87 578.62L321.84 578.64L327.9 578.66L334.05 578.66L340.27 578.67L346.57 578.66L352.93 578.65L359.34 578.64L365.8 578.62L372.31 578.6L378.85 578.57L385.42 578.53L392.02 578.49L398.62 578.45L405.24 578.4L411.85 578.34L418.46 578.28L425.06 578.22L431.63 578.15L438.18 578.07L444.69 577.99L451.17 577.91L457.59 577.82L463.96 577.73L470.26 577.63L476.5 577.52L482.65 577.42L488.73 577.3L494.71 577.19L500.6 577.06L506.38 576.94L512.05 576.81L515.91 576.71L519.79 576.62L523.68 576.52L527.6 576.43L531.51 576.33L535.43 576.23L539.35 576.13L543.25 576.02L547.13 575.92L550.98 575.82L554.81 575.72L558.6 575.62L562.34 575.51L566.03 575.41L569.67 575.31L573.24 575.21L576.74 575.11L580.16 575.01L583.51 574.91L586.76 574.82L589.92 574.72L592.98 574.63L595.92 574.54L598.76 574.45L601.47 574.37L604.06 574.29L606.51 574.21L608.82 574.13L610.99 574.05L613 573.98L614.86 573.92L616.54 573.85L618.06 573.79L619.4 573.74L620.55 573.69L621.51 573.64L622.28 573.6L622.84 573.56L623.19 573.53L623.32 573.5L623.33 573.4L623.33 573.12L623.33 572.66L623.33 572.03L623.33 571.22L623.33 570.25L623.32 569.11L623.31 567.81L623.3 566.35L623.28 564.74L623.27 562.98L623.25 561.07L623.23 559.02L623.21 556.83L623.18 554.5L623.16 552.04L623.13 549.46L623.1 546.74L623.07 543.91L623.04 540.96L623 537.9L622.97 534.72L622.93 531.44L622.89 528.06L622.85 524.58L622.81 521L622.76 517.33L622.72 513.57L622.67 509.72L622.62 505.8L622.57 501.8L622.52 497.72L622.47 493.57L622.42 489.36L622.36 485.08L622.31 480.75L622.25 476.36L622.19 471.91L622.13 467.42L622.08 462.88L622.02 458.31L621.96 453.71L621.91 449.07L621.85 444.42L621.79 439.75L621.73 435.06L621.68 430.37L621.62 425.68L621.56 420.99L621.5 416.31L621.45 411.65L621.39 407L621.33 402.38L621.28 397.78L621.22 393.22L621.17 388.7L621.11 384.23L621.06 379.81L621.01 375.44L620.95 371.13L620.9 366.88L620.85 362.71L620.8 358.62L620.75 354.6L620.71 350.67L620.66 346.83L620.61 343.09L620.57 339.45L620.53 335.92L620.49 332.5L620.45 329.19L620.41 326.01L620.37 322.96L620.34 320.04L620.31 317.25L620.28 314.61L620.25 312.12L620.22 309.78L620.19 307.6L620.17 305.59L620.15 303.58L620.12 301.44L620.1 299.17L620.07 296.77L620.04 294.25L620 291.61L619.97 288.85L619.94 285.99L619.9 283.02L619.86 279.95L619.82 276.79L619.78 273.53L619.74 270.19L619.69 266.77L619.65 263.27L619.6 259.7L619.55 256.06L619.5 252.36L619.46 248.6L619.41 244.79L619.36 240.93L619.3 237.02L619.25 233.08L619.2 229.1L619.15 225.08L619.09 221.05L619.04 216.99L618.99 212.92L618.93 208.83L618.88 204.74L618.82 200.65L618.77 196.55L618.71 192.47L618.66 188.39L618.61 184.34L618.55 180.3L618.5 176.29L618.44 172.31L618.39 168.36L618.34 164.45L618.33 163.93L618.32 163.32L618.31 162.61L618.3 161.81L618.29 160.91L618.28 159.92L618.26 158.84L618.24 157.66L618.23 156.39L618.21 155.02L618.19 153.56L618.16 152L618.14 150.35L618.12 148.61L618.09 146.77L618.06 144.84L618.03 142.81L618 140.69L617.97 138.47L617.94 136.16L617.91 133.75L617.87 131.25L617.83 128.66L617.8 125.97L617.76 123.19L617.72 120.31L617.67 117.34L617.63 114.28L617.59 111.12L617.54 107.87L617.49 104.52L617.44 101.08L617.4 97.54L617.34 93.91L617.29 90.18L617.24 86.36L617.18 82.45L617.13 78.44L617.07 74.34L617.01 70.14L616.69 70.14L616.39 70.13L616.09 70.12L615.8 70.12L615.51 70.11L615.23 70.1L614.96 70.1L614.7 70.09L614.44 70.08L614.19 70.08L613.94 70.07L613.71 70.07L613.48 70.06L613.26 70.06L613.04 70.05L612.83 70.05L612.63 70.04L612.44 70.04L612.25 70.03L612.07 70.03L611.9 70.03L611.73 70.02L611.57 70.02L611.42 70.02L611.28 70.01L611.14 70.01L611.01 70.01L610.89 70L610.77 70L610.66 70L610.56 70L610.46 69.99L610.38 69.99L610.29 69.99L610.22 69.99L610.15 69.99L610.09 69.99L610.04 69.98L609.99 69.98L609.96 69.98L609.53 69.98L608.85 69.98L607.91 69.98L606.72 69.99L605.29 70L603.62 70.02L601.71 70.04L599.58 70.06L597.23 70.08L594.66 70.11L591.88 70.14L588.89 70.18L585.7 70.22L582.32 70.26L578.75 70.3L574.99 70.35L571.06 70.4L566.95 70.45L562.67 70.5L558.24 70.56L553.64 70.62L548.9 70.68L544 70.75L538.97 70.81L533.8 70.88L528.51 70.95L523.09 71.03L517.55 71.1L511.89 71.18L506.13 71.26L500.27 71.34L494.31 71.42L488.26 71.5L482.12 71.59L475.9 71.68L469.61 71.76L463.25 71.85L456.82 71.94L450.33 72.04L443.8 72.13L437.18 72.22L430.45 72.32L423.64 72.42L416.73 72.51L409.75 72.61L402.7 72.71L395.59 72.81L388.43 72.91L381.22 73.01L373.98 73.11L366.71 73.22L359.42 73.32L352.13 73.42L344.83 73.52L337.54 73.62L330.27 73.72L323.02 73.83L315.81 73.93L308.64 74.03L301.52 74.12L294.46 74.22L287.46 74.32L280.54 74.41L273.71 74.51L266.97 74.6L260.33 74.69L253.81 74.78L247.4 74.87L241.12 74.95L234.97 75.04L228.97 75.12L223.13 75.2L217.44 75.28L211.93 75.35L206.6 75.42L201.45 75.49L196.5 75.56L191.75 75.62L187.22 75.68L182.91 75.74L178.7 75.8L174.48 75.85L170.26 75.91L166.02 75.96L161.79 76.02L157.57 76.08L153.35 76.13L149.14 76.19L144.96 76.25L140.79 76.3L136.66 76.36L132.55 76.41L128.48 76.47L124.45 76.52L120.46 76.58L116.53 76.63L112.64 76.68L108.82 76.74L105.05 76.79L101.35 76.84L97.73 76.89L94.18 76.94L90.7 76.99L87.32 77.04L84.02 77.08L80.81 77.13L77.71 77.17L74.7 77.22L71.8 77.26L69.01 77.3L66.34 77.34L63.79 77.38L61.36 77.41L59.06 77.45L56.89 77.48L54.86 77.51L52.97 77.54L51.23 77.57L49.64 77.6L48.2 77.62L48.02 77.62L47.81 77.63L47.56 77.63L47.28 77.64L46.97 77.64L46.62 77.65L46.24 77.65L45.83 77.66L45.39 77.67L44.91 77.68L44.4 77.69L43.86 77.7L43.28 77.71L42.67 77.72L42.03 77.73L41.36 77.74L40.65 77.75L39.91 77.77L39.13 77.78L38.33 77.79L37.49 77.81L36.61 77.82L35.71 77.84L34.77 77.86L33.8 77.87L32.8 77.89L31.76 77.91L30.69 77.93L29.58 77.95L28.45 77.97L27.28 77.99L26.08 78.01L24.84 78.03L23.58 78.05L22.28 78.07L20.94 78.1L19.58 78.12L18.18 78.14L16.74 78.17L15.28 78.2L15.38 102.08L15.5 111.85L15.62 121.44L15.74 130.85L15.86 140.07L15.98 149.1L16.09 157.96L16.21 166.63L16.32 175.12L16.43 183.42L16.54 191.54L16.65 199.48L16.76 207.24L16.87 214.81L16.97 222.2L17.08 229.4L17.18 236.43L17.28 243.27L17.38 249.92L17.48 256.4L17.58 262.68L17.68 268.79L17.77 274.71L17.87 280.45L17.96 286.01L18.05 291.38L18.14 296.57L18.23 301.58L18.32 306.41L18.41 311.05L18.49 315.5L18.58 319.78L18.66 323.87L18.74 327.78L18.83 331.5L18.91 335.04L18.98 338.4L19.06 341.58L19.14 344.57L19.21 347.38L19.29 350L19.39 353.55L19.5 357.13L19.5 357.13L19.61 360.74Z" id="clYggh71"></path><path d="" id="aCSBOyvxE"></path><path d="M14.61 38.64L616.25 28.14L617.05 74.35L15.42 84.85L14.61 38.64Z" id="b6xdpl9Qgw"></path><path d="M84.71 560.16L54.46 556.03L29.7 549.84L18.01 545.72L15.26 534.72L13.2 523.72L13.2 502.4L11.14 474.21L84.71 560.16Z" id="c2Yq3iw0KI"></path></defs><g><g><g><g><filter id="shadow7692635" x="-11.72" y="42.98" width="662.06" height="576.69" filterUnits="userSpaceOnUse" primitiveUnits="userSpaceOnUse"><feFlood></feFlood><feComposite in2="SourceAlpha" operator="in"></feComposite><feGaussianBlur stdDeviation="2"></feGaussianBlur><feOffset dx="0" dy="14" result="afterOffset"></feOffset><feFlood flood-color="#000000" flood-opacity="0.5"></feFlood><feComposite in2="afterOffset" operator="in"></feComposite><feMorphology operator="dilate" radius="0"></feMorphology><feComposite in2="SourceAlpha" operator="out"></feComposite></filter><path d="M19.61 360.74L19.73 364.36L19.84 367.99L19.96 371.64L20.08 375.29L20.2 378.94L20.32 382.59L20.44 386.22L20.56 389.85L20.68 393.45L20.81 397.03L20.93 400.59L21.06 404.11L21.18 407.59L21.31 411.03L21.43 414.42L21.55 417.76L21.68 421.05L21.8 424.28L21.92 427.43L22.04 430.52L22.16 433.54L22.28 436.47L22.4 439.32L22.51 442.08L22.62 444.75L22.73 447.32L22.84 449.78L22.95 452.14L23.05 454.38L23.15 456.51L23.25 458.52L23.34 460.39L23.43 462.14L23.52 463.75L23.61 465.22L23.69 466.55L23.76 467.72L23.78 467.97L23.8 468.25L23.82 468.53L23.83 468.84L23.86 469.16L23.88 469.5L23.9 469.86L23.92 470.23L23.95 470.61L23.97 471.01L24 471.42L24.03 471.84L24.05 472.28L24.08 472.72L24.11 473.18L24.14 473.65L24.17 474.12L24.2 474.61L24.23 475.1L24.26 475.6L24.29 476.11L24.33 476.63L24.36 477.15L24.39 477.67L24.42 478.2L24.46 478.74L24.49 479.28L24.52 479.82L24.56 480.36L24.59 480.91L24.63 481.45L24.66 482L24.69 482.54L24.73 483.09L24.76 483.63L24.8 484.18L24.83 484.71L24.86 485.25L24.9 485.78L24.93 486.31L25.06 488.56L25.19 490.78L25.33 492.99L25.47 495.17L25.62 497.33L25.76 499.47L25.91 501.59L26.07 503.68L26.22 505.74L26.38 507.78L26.54 509.79L26.7 511.78L26.86 513.74L27.03 515.67L27.2 517.57L27.37 519.44L27.54 521.28L27.72 523.08L27.89 524.86L28.07 526.6L28.25 528.31L28.43 529.99L28.62 531.63L28.8 533.23L28.99 534.8L29.17 536.34L29.36 537.83L29.55 539.29L29.74 540.71L29.93 542.08L30.13 543.42L30.32 544.72L30.51 545.97L30.71 547.18L30.9 548.35L31.1 549.48L31.3 550.56L31.49 551.59L31.69 552.58L31.89 553.52L31.89 553.54L31.9 553.56L31.9 553.58L31.91 553.61L31.91 553.64L31.92 553.67L31.93 553.7L31.93 553.74L31.94 553.78L31.95 553.82L31.96 553.87L31.97 553.92L31.98 553.97L31.99 554.03L32.01 554.09L32.02 554.15L32.03 554.21L32.05 554.28L32.06 554.35L32.08 554.42L32.09 554.5L32.11 554.58L32.13 554.66L32.15 554.75L32.16 554.84L32.18 554.93L32.2 555.02L32.22 555.12L32.25 555.22L32.27 555.33L32.29 555.43L32.31 555.54L32.34 555.66L32.36 555.77L32.39 555.89L32.41 556.01L32.44 556.14L32.46 556.26L32.49 556.39L32.52 556.53L32.7 556.6L32.87 556.67L33.05 556.73L33.21 556.8L33.38 556.86L33.53 556.93L33.69 556.99L33.84 557.05L33.99 557.1L34.13 557.16L34.27 557.21L34.4 557.27L34.53 557.32L34.66 557.37L34.78 557.42L34.9 557.46L35.02 557.51L35.13 557.55L35.24 557.59L35.34 557.63L35.44 557.67L35.53 557.71L35.62 557.74L35.71 557.78L35.79 557.81L35.87 557.84L35.94 557.87L36.01 557.9L36.08 557.92L36.14 557.95L36.2 557.97L36.26 557.99L36.31 558.01L36.35 558.03L36.39 558.05L36.43 558.06L36.47 558.08L36.5 558.09L36.52 558.1L36.55 558.11L37.02 558.29L37.47 558.47L37.91 558.64L38.33 558.81L38.74 558.96L39.13 559.12L39.51 559.26L39.89 559.4L40.25 559.54L40.6 559.67L40.94 559.79L41.28 559.91L41.61 560.03L41.94 560.14L42.26 560.26L42.58 560.36L42.9 560.47L43.21 560.57L43.53 560.67L43.85 560.77L44.18 560.87L44.5 560.97L44.83 561.06L45.17 561.16L45.52 561.26L45.87 561.35L46.23 561.45L46.6 561.55L46.99 561.65L47.38 561.75L47.79 561.85L48.21 561.96L48.65 562.06L49.11 562.18L49.58 562.29L50.08 562.41L50.59 562.53L51.12 562.66L51.68 562.79L52.26 562.92L55.04 563.55L57.95 564.17L61 564.78L64.18 565.37L67.49 565.95L70.94 566.52L74.52 567.08L78.24 567.62L82.09 568.15L86.07 568.67L90.18 569.17L94.43 569.66L98.81 570.14L103.33 570.6L107.98 571.06L112.76 571.5L117.67 571.92L122.72 572.34L127.9 572.74L133.22 573.13L138.67 573.51L144.25 573.87L149.96 574.22L155.81 574.56L161.79 574.88L167.9 575.19L174.14 575.49L180.52 575.78L187.04 576.05L193.68 576.31L200.46 576.56L207.37 576.79L214.41 577.01L221.59 577.22L228.9 577.42L236.34 577.6L243.92 577.77L251.62 577.93L259.46 578.07L267.44 578.2L272.27 578.27L277.25 578.34L282.38 578.39L287.65 578.45L293.06 578.49L298.59 578.53L304.24 578.57L310 578.6L315.87 578.62L321.84 578.64L327.9 578.66L334.05 578.66L340.27 578.67L346.57 578.66L352.93 578.65L359.34 578.64L365.8 578.62L372.31 578.6L378.85 578.57L385.42 578.53L392.02 578.49L398.62 578.45L405.24 578.4L411.85 578.34L418.46 578.28L425.06 578.22L431.63 578.15L438.18 578.07L444.69 577.99L451.17 577.91L457.59 577.82L463.96 577.73L470.26 577.63L476.5 577.52L482.65 577.42L488.73 577.3L494.71 577.19L500.6 577.06L506.38 576.94L512.05 576.81L515.91 576.71L519.79 576.62L523.68 576.52L527.6 576.43L531.51 576.33L535.43 576.23L539.35 576.13L543.25 576.02L547.13 575.92L550.98 575.82L554.81 575.72L558.6 575.62L562.34 575.51L566.03 575.41L569.67 575.31L573.24 575.21L576.74 575.11L580.16 575.01L583.51 574.91L586.76 574.82L589.92 574.72L592.98 574.63L595.92 574.54L598.76 574.45L601.47 574.37L604.06 574.29L606.51 574.21L608.82 574.13L610.99 574.05L613 573.98L614.86 573.92L616.54 573.85L618.06 573.79L619.4 573.74L620.55 573.69L621.51 573.64L622.28 573.6L622.84 573.56L623.19 573.53L623.32 573.5L623.33 573.4L623.33 573.12L623.33 572.66L623.33 572.03L623.33 571.22L623.33 570.25L623.32 569.11L623.31 567.81L623.3 566.35L623.28 564.74L623.27 562.98L623.25 561.07L623.23 559.02L623.21 556.83L623.18 554.5L623.16 552.04L623.13 549.46L623.1 546.74L623.07 543.91L623.04 540.96L623 537.9L622.97 534.72L622.93 531.44L622.89 528.06L622.85 524.58L622.81 521L622.76 517.33L622.72 513.57L622.67 509.72L622.62 505.8L622.57 501.8L622.52 497.72L622.47 493.57L622.42 489.36L622.36 485.08L622.31 480.75L622.25 476.36L622.19 471.91L622.13 467.42L622.08 462.88L622.02 458.31L621.96 453.71L621.91 449.07L621.85 444.42L621.79 439.75L621.73 435.06L621.68 430.37L621.62 425.68L621.56 420.99L621.5 416.31L621.45 411.65L621.39 407L621.33 402.38L621.28 397.78L621.22 393.22L621.17 388.7L621.11 384.23L621.06 379.81L621.01 375.44L620.95 371.13L620.9 366.88L620.85 362.71L620.8 358.62L620.75 354.6L620.71 350.67L620.66 346.83L620.61 343.09L620.57 339.45L620.53 335.92L620.49 332.5L620.45 329.19L620.41 326.01L620.37 322.96L620.34 320.04L620.31 317.25L620.28 314.61L620.25 312.12L620.22 309.78L620.19 307.6L620.17 305.59L620.15 303.58L620.12 301.44L620.1 299.17L620.07 296.77L620.04 294.25L620 291.61L619.97 288.85L619.94 285.99L619.9 283.02L619.86 279.95L619.82 276.79L619.78 273.53L619.74 270.19L619.69 266.77L619.65 263.27L619.6 259.7L619.55 256.06L619.5 252.36L619.46 248.6L619.41 244.79L619.36 240.93L619.3 237.02L619.25 233.08L619.2 229.1L619.15 225.08L619.09 221.05L619.04 216.99L618.99 212.92L618.93 208.83L618.88 204.74L618.82 200.65L618.77 196.55L618.71 192.47L618.66 188.39L618.61 184.34L618.55 180.3L618.5 176.29L618.44 172.31L618.39 168.36L618.34 164.45L618.33 163.93L618.32 163.32L618.31 162.61L618.3 161.81L618.29 160.91L618.28 159.92L618.26 158.84L618.24 157.66L618.23 156.39L618.21 155.02L618.19 153.56L618.16 152L618.14 150.35L618.12 148.61L618.09 146.77L618.06 144.84L618.03 142.81L618 140.69L617.97 138.47L617.94 136.16L617.91 133.75L617.87 131.25L617.83 128.66L617.8 125.97L617.76 123.19L617.72 120.31L617.67 117.34L617.63 114.28L617.59 111.12L617.54 107.87L617.49 104.52L617.44 101.08L617.4 97.54L617.34 93.91L617.29 90.18L617.24 86.36L617.18 82.45L617.13 78.44L617.07 74.34L617.01 70.14L616.69 70.14L616.39 70.13L616.09 70.12L615.8 70.12L615.51 70.11L615.23 70.1L614.96 70.1L614.7 70.09L614.44 70.08L614.19 70.08L613.94 70.07L613.71 70.07L613.48 70.06L613.26 70.06L613.04 70.05L612.83 70.05L612.63 70.04L612.44 70.04L612.25 70.03L612.07 70.03L611.9 70.03L611.73 70.02L611.57 70.02L611.42 70.02L611.28 70.01L611.14 70.01L611.01 70.01L610.89 70L610.77 70L610.66 70L610.56 70L610.46 69.99L610.38 69.99L610.29 69.99L610.22 69.99L610.15 69.99L610.09 69.99L610.04 69.98L609.99 69.98L609.96 69.98L609.53 69.98L608.85 69.98L607.91 69.98L606.72 69.99L605.29 70L603.62 70.02L601.71 70.04L599.58 70.06L597.23 70.08L594.66 70.11L591.88 70.14L588.89 70.18L585.7 70.22L582.32 70.26L578.75 70.3L574.99 70.35L571.06 70.4L566.95 70.45L562.67 70.5L558.24 70.56L553.64 70.62L548.9 70.68L544 70.75L538.97 70.81L533.8 70.88L528.51 70.95L523.09 71.03L517.55 71.1L511.89 71.18L506.13 71.26L500.27 71.34L494.31 71.42L488.26 71.5L482.12 71.59L475.9 71.68L469.61 71.76L463.25 71.85L456.82 71.94L450.33 72.04L443.8 72.13L437.18 72.22L430.45 72.32L423.64 72.42L416.73 72.51L409.75 72.61L402.7 72.71L395.59 72.81L388.43 72.91L381.22 73.01L373.98 73.11L366.71 73.22L359.42 73.32L352.13 73.42L344.83 73.52L337.54 73.62L330.27 73.72L323.02 73.83L315.81 73.93L308.64 74.03L301.52 74.12L294.46 74.22L287.46 74.32L280.54 74.41L273.71 74.51L266.97 74.6L260.33 74.69L253.81 74.78L247.4 74.87L241.12 74.95L234.97 75.04L228.97 75.12L223.13 75.2L217.44 75.28L211.93 75.35L206.6 75.42L201.45 75.49L196.5 75.56L191.75 75.62L187.22 75.68L182.91 75.74L178.7 75.8L174.48 75.85L170.26 75.91L166.02 75.96L161.79 76.02L157.57 76.08L153.35 76.13L149.14 76.19L144.96 76.25L140.79 76.3L136.66 76.36L132.55 76.41L128.48 76.47L124.45 76.52L120.46 76.58L116.53 76.63L112.64 76.68L108.82 76.74L105.05 76.79L101.35 76.84L97.73 76.89L94.18 76.94L90.7 76.99L87.32 77.04L84.02 77.08L80.81 77.13L77.71 77.17L74.7 77.22L71.8 77.26L69.01 77.3L66.34 77.34L63.79 77.38L61.36 77.41L59.06 77.45L56.89 77.48L54.86 77.51L52.97 77.54L51.23 77.57L49.64 77.6L48.2 77.62L48.02 77.62L47.81 77.63L47.56 77.63L47.28 77.64L46.97 77.64L46.62 77.65L46.24 77.65L45.83 77.66L45.39 77.67L44.91 77.68L44.4 77.69L43.86 77.7L43.28 77.71L42.67 77.72L42.03 77.73L41.36 77.74L40.65 77.75L39.91 77.77L39.13 77.78L38.33 77.79L37.49 77.81L36.61 77.82L35.71 77.84L34.77 77.86L33.8 77.87L32.8 77.89L31.76 77.91L30.69 77.93L29.58 77.95L28.45 77.97L27.28 77.99L26.08 78.01L24.84 78.03L23.58 78.05L22.28 78.07L20.94 78.1L19.58 78.12L18.18 78.14L16.74 78.17L15.28 78.2L15.38 102.08L15.5 111.85L15.62 121.44L15.74 130.85L15.86 140.07L15.98 149.1L16.09 157.96L16.21 166.63L16.32 175.12L16.43 183.42L16.54 191.54L16.65 199.48L16.76 207.24L16.87 214.81L16.97 222.2L17.08 229.4L17.18 236.43L17.28 243.27L17.38 249.92L17.48 256.4L17.58 262.68L17.68 268.79L17.77 274.71L17.87 280.45L17.96 286.01L18.05 291.38L18.14 296.57L18.23 301.58L18.32 306.41L18.41 311.05L18.49 315.5L18.58 319.78L18.66 323.87L18.74 327.78L18.83 331.5L18.91 335.04L18.98 338.4L19.06 341.58L19.14 344.57L19.21 347.38L19.29 350L19.39 353.55L19.5 357.13L19.5 357.13L19.61 360.74Z" id="atszGlQTB" fill="white" fill-opacity="1" filter="url(#shadow7692635)"></path></g><use xlink:href="#clYggh71" opacity="1" fill="#a1ffbb" fill-opacity="1"></use><g><use xlink:href="#clYggh71" opacity="1" fill-opacity="0" stroke="#000000" stroke-width="1" stroke-opacity="0"></use></g></g><g><g><use xlink:href="#aCSBOyvxE" opacity="1" fill-opacity="0" stroke="#000000" stroke-width="1" stroke-opacity="1"></use></g></g><g><g><filter id="shadow16655311" x="7.61" y="21.14" width="616.44" height="70.71" filterUnits="userSpaceOnUse" primitiveUnits="userSpaceOnUse"><feFlood></feFlood><feComposite in2="SourceAlpha" operator="in"></feComposite><feGaussianBlur stdDeviation="1"></feGaussianBlur><feOffset dx="0" dy="0" result="afterOffset"></feOffset><feFlood flood-color="#000000" flood-opacity="0.5"></feFlood><feComposite in2="afterOffset" operator="in"></feComposite><feMorphology operator="dilate" radius="0"></feMorphology><feComposite in2="SourceAlpha" operator="out"></feComposite></filter><path d="M14.61 38.64L616.25 28.14L617.05 74.35L15.42 84.85L14.61 38.64Z" id="fHP6milAs" fill="white" fill-opacity="1" filter="url(#shadow16655311)"></path></g><use xlink:href="#b6xdpl9Qgw" opacity="1" fill="#8cffac" fill-opacity="1"></use></g><g><use xlink:href="#c2Yq3iw0KI" opacity="0.02" fill="#575200" fill-opacity="1"></use><g><use xlink:href="#c2Yq3iw0KI" opacity="0.02" fill-opacity="0" stroke="#716a00" stroke-width="0" stroke-opacity="1"></use></g></g></g></g></svg>