<?xml version="1.0" encoding="UTF-8" standalone="no"?>
<!DOCTYPE svg PUBLIC "-//W3C//DTD SVG 1.1//EN" "http://www.w3.org/Graphics/SVG/1.1/DTD/svg11.dtd">
<svg version="1.1" xmlns="http://www.w3.org/2000/svg" xmlns:xlink="http://www.w3.org/1999/xlink" preserveAspectRatio="xMidYMid meet" viewBox="0 0 640 640" width="640" height="640"><defs><path d="M60.79 562.37L36.04 556.18L24.35 552.05L21.6 541.05L19.53 530.05L19.53 508.74L17.47 480.55L91.04 566.49L60.79 562.37Z" id="bj2ACzvTa"></path><path d="M15.04 359.11L15.09 362.75L15.14 366.4L15.2 370.05L15.25 373.7L15.31 377.35L15.37 380.99L15.43 384.61L15.49 388.22L15.55 391.8L15.61 395.35L15.67 398.88L15.74 402.36L15.8 405.8L15.87 409.2L15.93 412.54L16 415.83L16.07 419.05L16.13 422.22L16.2 425.31L16.27 428.32L16.33 431.26L16.4 434.11L16.46 436.87L16.53 439.54L16.6 442.11L16.66 444.58L16.73 446.93L16.79 449.18L16.85 451.31L16.92 453.31L16.98 455.19L17.04 456.94L17.1 458.55L17.16 460.03L17.21 461.35L17.27 462.53L17.28 462.78L17.29 463.05L17.31 463.34L17.32 463.65L17.34 463.97L17.35 464.31L17.37 464.67L17.39 465.04L17.4 465.42L17.42 465.82L17.44 466.23L17.46 466.65L17.48 467.09L17.5 467.54L17.52 467.99L17.54 468.46L17.56 468.94L17.59 469.42L17.61 469.92L17.63 470.42L17.65 470.93L17.68 471.44L17.7 471.96L17.72 472.49L17.75 473.02L17.77 473.56L17.79 474.09L17.82 474.64L17.84 475.18L17.87 475.72L17.89 476.27L17.92 476.82L17.94 477.36L17.97 477.91L17.99 478.46L18.01 479L18.04 479.54L18.06 480.07L18.09 480.61L18.11 481.14L18.2 483.38L18.3 485.61L18.4 487.82L18.5 490.01L18.61 492.17L18.72 494.31L18.83 496.43L18.94 498.52L19.06 500.59L19.18 502.63L19.31 504.64L19.44 506.63L19.57 508.59L19.7 510.52L19.83 512.43L19.97 514.3L20.11 516.14L20.26 517.95L20.4 519.73L20.55 521.48L20.7 523.19L20.85 524.87L21.01 526.51L21.16 528.12L21.32 529.69L21.48 531.23L21.64 532.73L21.81 534.18L21.97 535.61L22.14 536.99L22.31 538.33L22.48 539.63L22.65 540.88L22.83 542.1L23 543.27L23.18 544.4L23.36 545.48L23.54 546.52L23.72 547.51L23.9 548.46L23.9 548.48L23.9 548.5L23.91 548.52L23.91 548.54L23.92 548.57L23.92 548.6L23.93 548.64L23.94 548.68L23.95 548.72L23.95 548.76L23.96 548.81L23.97 548.86L23.98 548.91L23.99 548.97L24.01 549.02L24.02 549.09L24.03 549.15L24.04 549.22L24.06 549.29L24.07 549.36L24.08 549.44L24.1 549.52L24.12 549.6L24.13 549.69L24.15 549.78L24.17 549.87L24.19 549.97L24.2 550.06L24.22 550.16L24.24 550.27L24.26 550.38L24.29 550.49L24.31 550.6L24.33 550.71L24.35 550.83L24.38 550.96L24.4 551.08L24.42 551.21L24.45 551.34L24.48 551.47L24.65 551.55L24.83 551.62L25 551.69L25.16 551.76L25.32 551.83L25.48 551.89L25.64 551.95L25.79 552.02L25.93 552.08L26.07 552.13L26.21 552.19L26.35 552.25L26.48 552.3L26.6 552.35L26.72 552.4L26.84 552.45L26.96 552.5L27.07 552.54L27.17 552.59L27.27 552.63L27.37 552.67L27.47 552.71L27.56 552.75L27.64 552.78L27.72 552.81L27.8 552.85L27.88 552.88L27.95 552.91L28.01 552.93L28.07 552.96L28.13 552.98L28.19 553L28.24 553.03L28.28 553.04L28.32 553.06L28.36 553.08L28.4 553.09L28.43 553.1L28.45 553.11L28.47 553.12L28.94 553.32L29.39 553.5L29.83 553.68L30.25 553.85L30.65 554.02L31.04 554.18L31.42 554.33L31.79 554.48L32.15 554.62L32.5 554.75L32.84 554.88L33.17 555.01L33.5 555.14L33.83 555.25L34.15 555.37L34.46 555.48L34.78 555.6L35.1 555.7L35.41 555.81L35.73 555.91L36.05 556.02L36.38 556.12L36.71 556.22L37.04 556.33L37.39 556.43L37.74 556.53L38.1 556.63L38.47 556.74L38.85 556.84L39.24 556.95L39.65 557.06L40.07 557.18L40.51 557.29L40.96 557.41L41.44 557.53L41.93 557.66L42.44 557.79L42.97 557.93L43.52 558.07L44.1 558.21L46.87 558.89L49.77 559.56L52.81 560.22L55.98 560.87L59.28 561.51L62.72 562.14L66.29 562.75L69.99 563.36L73.83 563.96L77.8 564.54L81.91 565.12L86.15 565.69L90.52 566.24L95.03 566.78L99.67 567.32L104.44 567.84L109.35 568.35L114.39 568.86L119.56 569.35L124.87 569.83L130.31 570.3L135.88 570.76L141.59 571.21L147.43 571.65L153.4 572.08L159.51 572.5L165.75 572.91L172.12 573.3L178.63 573.69L185.27 574.07L192.04 574.43L198.94 574.79L205.98 575.13L213.15 575.46L220.46 575.79L227.9 576.1L235.47 576.4L243.17 576.69L251.01 576.97L258.98 577.24L263.81 577.4L268.79 577.55L273.91 577.7L279.18 577.84L284.59 577.98L290.12 578.12L295.77 578.25L301.53 578.38L307.4 578.51L313.37 578.63L319.43 578.75L325.57 578.87L331.8 578.98L338.09 579.09L344.45 579.19L350.86 579.29L357.32 579.38L363.83 579.47L370.37 579.56L376.94 579.64L383.53 579.71L390.14 579.78L396.76 579.85L403.37 579.91L409.98 579.96L416.58 580.01L423.15 580.06L429.7 580.1L436.21 580.13L442.68 580.16L449.11 580.18L455.48 580.2L461.78 580.21L468.02 580.22L474.18 580.22L480.25 580.21L486.24 580.2L492.13 580.18L497.91 580.15L503.58 580.12L507.44 580.09L511.32 580.07L515.22 580.04L519.13 580.01L523.05 579.98L526.97 579.95L530.88 579.91L534.78 579.88L538.67 579.85L542.52 579.81L546.35 579.78L550.14 579.74L553.88 579.7L557.57 579.67L561.21 579.63L564.78 579.59L568.29 579.55L571.71 579.51L575.06 579.47L578.31 579.44L581.47 579.4L584.53 579.36L587.48 579.32L590.31 579.28L593.03 579.24L595.62 579.2L598.07 579.17L600.38 579.13L602.55 579.09L604.56 579.06L606.42 579.02L608.11 578.99L609.62 578.96L610.96 578.92L612.12 578.89L613.08 578.86L613.84 578.83L614.41 578.8L614.76 578.78L614.89 578.75L614.9 578.66L614.91 578.38L614.92 577.92L614.93 577.28L614.94 576.48L614.95 575.5L614.96 574.36L614.98 573.06L614.99 571.61L615.01 569.99L615.02 568.23L615.04 566.32L615.05 564.27L615.07 562.08L615.08 559.76L615.1 557.3L615.12 554.71L615.14 552L615.16 549.17L615.17 546.22L615.19 543.15L615.21 539.98L615.23 536.7L615.25 533.31L615.27 529.83L615.29 526.25L615.31 522.58L615.33 518.82L615.35 514.98L615.37 511.05L615.39 507.05L615.41 502.97L615.43 498.82L615.45 494.61L615.47 490.33L615.49 486L615.51 481.61L615.54 477.16L615.56 472.67L615.57 468.13L615.6 463.56L615.62 458.96L615.65 454.32L615.67 449.67L615.7 445L615.72 440.31L615.74 435.62L615.77 430.93L615.79 426.24L615.82 421.56L615.84 416.89L615.87 412.25L615.89 407.62L615.91 403.03L615.94 398.47L615.96 393.95L615.99 389.48L616.01 385.05L616.03 380.68L616.05 376.37L616.08 372.13L616.1 367.96L616.12 363.86L616.14 359.84L616.16 355.91L616.18 352.08L616.2 348.33L616.22 344.69L616.24 341.16L616.26 337.74L616.28 334.44L616.3 331.25L616.32 328.2L616.33 325.28L616.35 322.5L616.36 319.86L616.38 317.36L616.39 315.02L616.4 312.84L616.42 310.83L616.43 308.83L616.44 306.69L616.45 304.41L616.47 302.01L616.48 299.49L616.49 296.85L616.51 294.09L616.52 291.23L616.54 288.26L616.55 285.19L616.57 282.03L616.58 278.77L616.6 275.43L616.61 272.01L616.63 268.51L616.65 264.94L616.66 261.3L616.68 257.6L616.7 253.84L616.71 250.02L616.73 246.16L616.75 242.26L616.76 238.31L616.78 234.33L616.8 230.32L616.81 226.28L616.83 222.23L616.85 218.15L616.87 214.07L616.88 209.97L616.9 205.88L616.92 201.79L616.93 197.7L616.95 193.63L616.97 189.57L616.98 185.53L617 181.52L617.02 177.54L617.03 173.59L617.05 169.68L617.05 169.16L617.05 168.55L617.05 167.84L617.06 167.04L617.06 166.14L617.06 165.15L617.07 164.07L617.07 162.89L617.07 161.62L617.08 160.25L617.08 158.79L617.09 157.23L617.09 155.58L617.1 153.84L617.11 152L617.11 150.06L617.12 148.04L617.13 145.91L617.13 143.7L617.14 141.39L617.15 138.98L617.16 136.48L617.17 133.89L617.18 131.2L617.19 128.42L617.2 125.54L617.21 122.57L617.22 119.5L617.23 116.34L617.24 113.09L617.25 109.74L617.26 106.3L617.27 102.76L617.28 99.13L617.3 95.41L617.31 91.59L617.32 87.67L617.34 83.66L617.35 79.56L617.36 75.36L617.05 75.35L616.74 75.34L616.44 75.33L616.15 75.32L615.87 75.3L615.59 75.29L615.32 75.28L615.05 75.27L614.79 75.26L614.54 75.25L614.3 75.24L614.06 75.23L613.84 75.22L613.61 75.21L613.4 75.2L613.19 75.2L612.99 75.19L612.8 75.18L612.61 75.17L612.43 75.17L612.26 75.16L612.09 75.15L611.93 75.15L611.78 75.14L611.64 75.13L611.5 75.13L611.37 75.12L611.24 75.12L611.13 75.11L611.02 75.11L610.92 75.11L610.82 75.1L610.73 75.1L610.65 75.09L610.58 75.09L610.51 75.09L610.45 75.09L610.4 75.08L610.35 75.08L610.31 75.08L609.89 75.07L609.21 75.06L608.27 75.05L607.08 75.03L605.65 75.02L603.98 75.01L602.07 74.99L599.94 74.98L597.59 74.96L595.02 74.94L592.24 74.93L589.25 74.91L586.06 74.89L582.68 74.87L579.11 74.85L575.35 74.84L571.41 74.82L567.31 74.8L563.03 74.78L558.59 74.76L554 74.74L549.25 74.72L544.36 74.7L539.33 74.67L534.16 74.65L528.86 74.63L523.44 74.61L517.9 74.59L512.25 74.57L506.49 74.54L500.62 74.52L494.66 74.5L488.61 74.48L482.47 74.46L476.25 74.44L469.96 74.41L463.6 74.39L457.17 74.37L450.68 74.35L444.14 74.33L437.52 74.31L430.8 74.28L423.98 74.26L417.08 74.24L410.1 74.22L403.04 74.19L395.93 74.17L388.77 74.14L381.56 74.12L374.32 74.09L367.05 74.07L359.76 74.04L352.47 74.02L345.17 73.99L337.88 73.97L330.61 73.94L323.36 73.92L316.14 73.89L308.97 73.86L301.85 73.84L294.79 73.81L287.79 73.79L280.87 73.76L274.04 73.74L267.3 73.71L260.66 73.69L254.14 73.66L247.73 73.64L241.45 73.62L235.3 73.59L229.3 73.57L223.45 73.55L217.77 73.52L212.26 73.5L206.92 73.48L201.77 73.46L196.82 73.44L192.08 73.42L187.54 73.4L183.23 73.39L179.03 73.37L174.81 73.35L170.58 73.33L166.35 73.31L162.12 73.3L157.89 73.28L153.67 73.26L149.47 73.25L145.28 73.23L141.11 73.21L136.98 73.2L132.87 73.18L128.8 73.16L124.77 73.15L120.78 73.13L116.84 73.12L112.96 73.1L109.13 73.09L105.37 73.07L101.67 73.06L98.04 73.05L94.49 73.04L91.02 73.02L87.63 73.01L84.33 73L81.13 72.99L78.02 72.98L75.02 72.97L72.12 72.96L69.33 72.95L66.65 72.95L64.1 72.94L61.67 72.93L59.37 72.93L57.2 72.92L55.17 72.92L53.28 72.92L51.54 72.92L49.95 72.91L48.51 72.91L48.33 72.91L48.12 72.91L47.87 72.91L47.59 72.91L47.28 72.91L46.93 72.91L46.56 72.91L46.14 72.91L45.7 72.91L45.22 72.91L44.71 72.91L44.17 72.91L43.59 72.91L42.98 72.91L42.34 72.91L41.67 72.91L40.96 72.91L40.22 72.91L39.44 72.91L38.64 72.91L37.8 72.91L36.92 72.91L36.02 72.91L35.08 72.91L34.11 72.91L33.1 72.91L32.07 72.91L31 72.91L29.89 72.91L28.76 72.91L27.59 72.91L26.39 72.91L25.15 72.91L23.88 72.91L22.58 72.91L21.25 72.91L19.88 72.91L18.48 72.91L17.05 72.91L15.59 72.91L15.27 96.8L15.22 106.57L15.17 116.16L15.13 125.56L15.09 134.79L15.04 143.82L15.01 152.68L14.97 161.35L14.93 169.84L14.9 178.15L14.87 186.27L14.84 194.21L14.81 201.96L14.79 209.54L14.76 216.93L14.74 224.13L14.72 231.15L14.71 237.99L14.69 244.65L14.68 251.12L14.66 257.42L14.66 263.52L14.65 269.45L14.64 275.19L14.64 280.74L14.64 286.12L14.64 291.31L14.64 296.32L14.64 301.14L14.65 305.78L14.66 310.24L14.67 314.52L14.68 318.61L14.69 322.52L14.71 326.24L14.73 329.79L14.75 333.14L14.77 336.32L14.79 339.31L14.82 342.12L14.85 344.75L14.89 348.3L14.94 351.88L14.94 351.88L14.99 355.49L15.04 359.11Z" id="b40AMjKzqA"></path><path d="M15.04 359.11L15.09 362.75L15.14 366.4L15.2 370.05L15.25 373.7L15.31 377.35L15.37 380.99L15.43 384.61L15.49 388.22L15.55 391.8L15.61 395.35L15.67 398.88L15.74 402.36L15.8 405.8L15.87 409.2L15.93 412.54L16 415.83L16.07 419.05L16.13 422.22L16.2 425.31L16.27 428.32L16.33 431.26L16.4 434.11L16.46 436.87L16.53 439.54L16.6 442.11L16.66 444.58L16.73 446.93L16.79 449.18L16.85 451.31L16.92 453.31L16.98 455.19L17.04 456.94L17.1 458.55L17.16 460.03L17.21 461.35L17.27 462.53L17.28 462.78L17.29 463.05L17.31 463.34L17.32 463.65L17.34 463.97L17.35 464.31L17.37 464.67L17.39 465.04L17.4 465.42L17.42 465.82L17.44 466.23L17.46 466.65L17.48 467.09L17.5 467.54L17.52 467.99L17.54 468.46L17.56 468.94L17.59 469.42L17.61 469.92L17.63 470.42L17.65 470.93L17.68 471.44L17.7 471.96L17.72 472.49L17.75 473.02L17.77 473.56L17.79 474.09L17.82 474.64L17.84 475.18L17.87 475.72L17.89 476.27L17.92 476.82L17.94 477.36L17.97 477.91L17.99 478.46L18.01 479L18.04 479.54L18.06 480.07L18.09 480.61L18.11 481.14L18.2 483.38L18.3 485.61L18.4 487.82L18.5 490.01L18.61 492.17L18.72 494.31L18.83 496.43L18.94 498.52L19.06 500.59L19.18 502.63L19.31 504.64L19.44 506.63L19.57 508.59L19.7 510.52L19.83 512.43L19.97 514.3L20.11 516.14L20.26 517.95L20.4 519.73L20.55 521.48L20.7 523.19L20.85 524.87L21.01 526.51L21.16 528.12L21.32 529.69L21.48 531.23L21.64 532.73L21.81 534.18L21.97 535.61L22.14 536.99L22.31 538.33L22.48 539.63L22.65 540.88L22.83 542.1L23 543.27L23.18 544.4L23.36 545.48L23.54 546.52L23.72 547.51L23.9 548.46L23.9 548.48L23.9 548.5L23.91 548.52L23.91 548.54L23.92 548.57L23.92 548.6L23.93 548.64L23.94 548.68L23.95 548.72L23.95 548.76L23.96 548.81L23.97 548.86L23.98 548.91L23.99 548.97L24.01 549.02L24.02 549.09L24.03 549.15L24.04 549.22L24.06 549.29L24.07 549.36L24.08 549.44L24.1 549.52L24.12 549.6L24.13 549.69L24.15 549.78L24.17 549.87L24.19 549.97L24.2 550.06L24.22 550.16L24.24 550.27L24.26 550.38L24.29 550.49L24.31 550.6L24.33 550.71L24.35 550.83L24.38 550.96L24.4 551.08L24.42 551.21L24.45 551.34L24.48 551.47L24.65 551.55L24.83 551.62L25 551.69L25.16 551.76L25.32 551.83L25.48 551.89L25.64 551.95L25.79 552.02L25.93 552.08L26.07 552.13L26.21 552.19L26.35 552.25L26.48 552.3L26.6 552.35L26.72 552.4L26.84 552.45L26.96 552.5L27.07 552.54L27.17 552.59L27.27 552.63L27.37 552.67L27.47 552.71L27.56 552.75L27.64 552.78L27.72 552.81L27.8 552.85L27.88 552.88L27.95 552.91L28.01 552.93L28.07 552.96L28.13 552.98L28.19 553L28.24 553.03L28.28 553.04L28.32 553.06L28.36 553.08L28.4 553.09L28.43 553.1L28.45 553.11L28.47 553.12L28.94 553.32L29.39 553.5L29.83 553.68L30.25 553.85L30.65 554.02L31.04 554.18L31.42 554.33L31.79 554.48L32.15 554.62L32.5 554.75L32.84 554.88L33.17 555.01L33.5 555.14L33.83 555.25L34.15 555.37L34.46 555.48L34.78 555.6L35.1 555.7L35.41 555.81L35.73 555.91L36.05 556.02L36.38 556.12L36.71 556.22L37.04 556.33L37.39 556.43L37.74 556.53L38.1 556.63L38.47 556.74L38.85 556.84L39.24 556.95L39.65 557.06L40.07 557.18L40.51 557.29L40.96 557.41L41.44 557.53L41.93 557.66L42.44 557.79L42.97 557.93L43.52 558.07L44.1 558.21L46.87 558.89L49.77 559.56L52.81 560.22L55.98 560.87L59.28 561.51L62.72 562.14L66.29 562.75L69.99 563.36L73.83 563.96L77.8 564.54L81.91 565.12L86.15 565.69L90.52 566.24L95.03 566.78L99.67 567.32L104.44 567.84L109.35 568.35L114.39 568.86L119.56 569.35L124.87 569.83L130.31 570.3L135.88 570.76L141.59 571.21L147.43 571.65L153.4 572.08L159.51 572.5L165.75 572.91L172.12 573.3L178.63 573.69L185.27 574.07L192.04 574.43L198.94 574.79L205.98 575.13L213.15 575.46L220.46 575.79L227.9 576.1L235.47 576.4L243.17 576.69L251.01 576.97L258.98 577.24L263.81 577.4L268.79 577.55L273.91 577.7L279.18 577.84L284.59 577.98L290.12 578.12L295.77 578.25L301.53 578.38L307.4 578.51L313.37 578.63L319.43 578.75L325.57 578.87L331.8 578.98L338.09 579.09L344.45 579.19L350.86 579.29L357.32 579.38L363.83 579.47L370.37 579.56L376.94 579.64L383.53 579.71L390.14 579.78L396.76 579.85L403.37 579.91L409.98 579.96L416.58 580.01L423.15 580.06L429.7 580.1L436.21 580.13L442.68 580.16L449.11 580.18L455.48 580.2L461.78 580.21L468.02 580.22L474.18 580.22L480.25 580.21L486.24 580.2L492.13 580.18L497.91 580.15L503.58 580.12L507.44 580.09L511.32 580.07L515.22 580.04L519.13 580.01L523.05 579.98L526.97 579.95L530.88 579.91L534.78 579.88L538.67 579.85L542.52 579.81L546.35 579.78L550.14 579.74L553.88 579.7L557.57 579.67L561.21 579.63L564.78 579.59L568.29 579.55L571.71 579.51L575.06 579.47L578.31 579.44L581.47 579.4L584.53 579.36L587.48 579.32L590.31 579.28L593.03 579.24L595.62 579.2L598.07 579.17L600.38 579.13L602.55 579.09L604.56 579.06L606.42 579.02L608.11 578.99L609.62 578.96L610.96 578.92L612.12 578.89L613.08 578.86L613.84 578.83L614.41 578.8L614.76 578.78L614.89 578.75L614.9 578.66L614.91 578.38L614.92 577.92L614.93 577.28L614.94 576.48L614.95 575.5L614.96 574.36L614.98 573.06L614.99 571.61L615.01 569.99L615.02 568.23L615.04 566.32L615.05 564.27L615.07 562.08L615.08 559.76L615.1 557.3L615.12 554.71L615.14 552L615.16 549.17L615.17 546.22L615.19 543.15L615.21 539.98L615.23 536.7L615.25 533.31L615.27 529.83L615.29 526.25L615.31 522.58L615.33 518.82L615.35 514.98L615.37 511.05L615.39 507.05L615.41 502.97L615.43 498.82L615.45 494.61L615.47 490.33L615.49 486L615.51 481.61L615.54 477.16L615.56 472.67L615.57 468.13L615.6 463.56L615.62 458.96L615.65 454.32L615.67 449.67L615.7 445L615.72 440.31L615.74 435.62L615.77 430.93L615.79 426.24L615.82 421.56L615.84 416.89L615.87 412.25L615.89 407.62L615.91 403.03L615.94 398.47L615.96 393.95L615.99 389.48L616.01 385.05L616.03 380.68L616.05 376.37L616.08 372.13L616.1 367.96L616.12 363.86L616.14 359.84L616.16 355.91L616.18 352.08L616.2 348.33L616.22 344.69L616.24 341.16L616.26 337.74L616.28 334.44L616.3 331.25L616.32 328.2L616.33 325.28L616.35 322.5L616.36 319.86L616.38 317.36L616.39 315.02L616.4 312.84L616.42 310.83L616.43 308.83L616.44 306.69L616.45 304.41L616.47 302.01L616.48 299.49L616.49 296.85L616.51 294.09L616.52 291.23L616.54 288.26L616.55 285.19L616.57 282.03L616.58 278.77L616.6 275.43L616.61 272.01L616.63 268.51L616.65 264.94L616.66 261.3L616.68 257.6L616.7 253.84L616.71 250.02L616.73 246.16L616.75 242.26L616.76 238.31L616.78 234.33L616.8 230.32L616.81 226.28L616.83 222.23L616.85 218.15L616.87 214.07L616.88 209.97L616.9 205.88L616.92 201.79L616.93 197.7L616.95 193.63L616.97 189.57L616.98 185.53L617 181.52L617.02 177.54L617.03 173.59L617.05 169.68L617.05 169.16L617.05 168.55L617.05 167.84L617.06 167.04L617.06 166.14L617.06 165.15L617.07 164.07L617.07 162.89L617.07 161.62L617.08 160.25L617.08 158.79L617.09 157.23L617.09 155.58L617.1 153.84L617.11 152L617.11 150.06L617.12 148.04L617.13 145.91L617.13 143.7L617.14 141.39L617.15 138.98L617.16 136.48L617.17 133.89L617.18 131.2L617.19 128.42L617.2 125.54L617.21 122.57L617.22 119.5L617.23 116.34L617.24 113.09L617.25 109.74L617.26 106.3L617.27 102.76L617.28 99.13L617.3 95.41L617.31 91.59L617.32 87.67L617.34 83.66L617.35 79.56L617.36 75.36L617.05 75.35L616.74 75.34L616.44 75.33L616.15 75.32L615.87 75.3L615.59 75.29L615.32 75.28L615.05 75.27L614.79 75.26L614.54 75.25L614.3 75.24L614.06 75.23L613.84 75.22L613.61 75.21L613.4 75.2L613.19 75.2L612.99 75.19L612.8 75.18L612.61 75.17L612.43 75.17L612.26 75.16L612.09 75.15L611.93 75.15L611.78 75.14L611.64 75.13L611.5 75.13L611.37 75.12L611.24 75.12L611.13 75.11L611.02 75.11L610.92 75.11L610.82 75.1L610.73 75.1L610.65 75.09L610.58 75.09L610.51 75.09L610.45 75.09L610.4 75.08L610.35 75.08L610.31 75.08L609.89 75.07L609.21 75.06L608.27 75.05L607.08 75.03L605.65 75.02L603.98 75.01L602.07 74.99L599.94 74.98L597.59 74.96L595.02 74.94L592.24 74.93L589.25 74.91L586.06 74.89L582.68 74.87L579.11 74.85L575.35 74.84L571.41 74.82L567.31 74.8L563.03 74.78L558.59 74.76L554 74.74L549.25 74.72L544.36 74.7L539.33 74.67L534.16 74.65L528.86 74.63L523.44 74.61L517.9 74.59L512.25 74.57L506.49 74.54L500.62 74.52L494.66 74.5L488.61 74.48L482.47 74.46L476.25 74.44L469.96 74.41L463.6 74.39L457.17 74.37L450.68 74.35L444.14 74.33L437.52 74.31L430.8 74.28L423.98 74.26L417.08 74.24L410.1 74.22L403.04 74.19L395.93 74.17L388.77 74.14L381.56 74.12L374.32 74.09L367.05 74.07L359.76 74.04L352.47 74.02L345.17 73.99L337.88 73.97L330.61 73.94L323.36 73.92L316.14 73.89L308.97 73.86L301.85 73.84L294.79 73.81L287.79 73.79L280.87 73.76L274.04 73.74L267.3 73.71L260.66 73.69L254.14 73.66L247.73 73.64L241.45 73.62L235.3 73.59L229.3 73.57L223.45 73.55L217.77 73.52L212.26 73.5L206.92 73.48L201.77 73.46L196.82 73.44L192.08 73.42L187.54 73.4L183.23 73.39L179.03 73.37L174.81 73.35L170.58 73.33L166.35 73.31L162.12 73.3L157.89 73.28L153.67 73.26L149.47 73.25L145.28 73.23L141.11 73.21L136.98 73.2L132.87 73.18L128.8 73.16L124.77 73.15L120.78 73.13L116.84 73.12L112.96 73.1L109.13 73.09L105.37 73.07L101.67 73.06L98.04 73.05L94.49 73.04L91.02 73.02L87.63 73.01L84.33 73L81.13 72.99L78.02 72.98L75.02 72.97L72.12 72.96L69.33 72.95L66.65 72.95L64.1 72.94L61.67 72.93L59.37 72.93L57.2 72.92L55.17 72.92L53.28 72.92L51.54 72.92L49.95 72.91L48.51 72.91L48.33 72.91L48.12 72.91L47.87 72.91L47.59 72.91L47.28 72.91L46.93 72.91L46.56 72.91L46.14 72.91L45.7 72.91L45.22 72.91L44.71 72.91L44.17 72.91L43.59 72.91L42.98 72.91L42.34 72.91L41.67 72.91L40.96 72.91L40.22 72.91L39.44 72.91L38.64 72.91L37.8 72.91L36.92 72.91L36.02 72.91L35.08 72.91L34.11 72.91L33.1 72.91L32.07 72.91L31 72.91L29.89 72.91L28.76 72.91L27.59 72.91L26.39 72.91L25.15 72.91L23.88 72.91L22.58 72.91L21.25 72.91L19.88 72.91L18.48 72.91L17.05 72.91L15.59 72.91L15.27 96.8L15.22 106.57L15.17 116.16L15.13 125.56L15.09 134.79L15.04 143.82L15.01 152.68L14.97 161.35L14.93 169.84L14.9 178.15L14.87 186.27L14.84 194.21L14.81 201.96L14.79 209.54L14.76 216.93L14.74 224.13L14.72 231.15L14.71 237.99L14.69 244.65L14.68 251.12L14.66 257.42L14.66 263.52L14.65 269.45L14.64 275.19L14.64 280.74L14.64 286.12L14.64 291.31L14.64 296.32L14.64 301.14L14.65 305.78L14.66 310.24L14.67 314.52L14.68 318.61L14.69 322.52L14.71 326.24L14.73 329.79L14.75 333.14L14.77 336.32L14.79 339.31L14.82 342.12L14.85 344.75L14.89 348.3L14.94 351.88L14.94 351.88L14.99 355.49L15.04 359.11Z" id="aglTQOfXs"></path><path d="M617.36 33.72L617.36 79.94L15.64 79.94L15.64 33.72L617.36 33.72Z" id="c53sLMsed"></path></defs><g><g><g><use xlink:href="#bj2ACzvTa" opacity="1" fill="#000000" fill-opacity="0"></use><g><use xlink:href="#bj2ACzvTa" opacity="1" fill-opacity="0" stroke="#716a00" stroke-width="0" stroke-opacity="1"></use></g></g><g><g><filter id="shadow10653262" x="-25.36" y="32.91" width="682.72" height="598.31" filterUnits="userSpaceOnUse" primitiveUnits="userSpaceOnUse"><feFlood></feFlood><feComposite in2="SourceAlpha" operator="in"></feComposite><feGaussianBlur stdDeviation="3.46"></feGaussianBlur><feOffset dx="0" dy="11" result="afterOffset"></feOffset><feFlood flood-color="#000000" flood-opacity="0.5"></feFlood><feComposite in2="afterOffset" operator="in"></feComposite><feMorphology operator="dilate" radius="0"></feMorphology><feComposite in2="SourceAlpha" operator="out"></feComposite></filter><path d="M15.04 359.11L15.09 362.75L15.14 366.4L15.2 370.05L15.25 373.7L15.31 377.35L15.37 380.99L15.43 384.61L15.49 388.22L15.55 391.8L15.61 395.35L15.67 398.88L15.74 402.36L15.8 405.8L15.87 409.2L15.93 412.54L16 415.83L16.07 419.05L16.13 422.22L16.2 425.31L16.27 428.32L16.33 431.26L16.4 434.11L16.46 436.87L16.53 439.54L16.6 442.11L16.66 444.58L16.73 446.93L16.79 449.18L16.85 451.31L16.92 453.31L16.98 455.19L17.04 456.94L17.1 458.55L17.16 460.03L17.21 461.35L17.27 462.53L17.28 462.78L17.29 463.05L17.31 463.34L17.32 463.65L17.34 463.97L17.35 464.31L17.37 464.67L17.39 465.04L17.4 465.42L17.42 465.82L17.44 466.23L17.46 466.65L17.48 467.09L17.5 467.54L17.52 467.99L17.54 468.46L17.56 468.94L17.59 469.42L17.61 469.92L17.63 470.42L17.65 470.93L17.68 471.44L17.7 471.96L17.72 472.49L17.75 473.02L17.77 473.56L17.79 474.09L17.82 474.64L17.84 475.18L17.87 475.72L17.89 476.27L17.92 476.82L17.94 477.36L17.97 477.91L17.99 478.46L18.01 479L18.04 479.54L18.06 480.07L18.09 480.61L18.11 481.14L18.2 483.38L18.3 485.61L18.4 487.82L18.5 490.01L18.61 492.17L18.72 494.31L18.83 496.43L18.94 498.52L19.06 500.59L19.18 502.63L19.31 504.64L19.44 506.63L19.57 508.59L19.7 510.52L19.83 512.43L19.97 514.3L20.11 516.14L20.26 517.95L20.4 519.73L20.55 521.48L20.7 523.19L20.85 524.87L21.01 526.51L21.16 528.12L21.32 529.69L21.48 531.23L21.64 532.73L21.81 534.18L21.97 535.61L22.14 536.99L22.31 538.33L22.48 539.63L22.65 540.88L22.83 542.1L23 543.27L23.18 544.4L23.36 545.48L23.54 546.52L23.72 547.51L23.9 548.46L23.9 548.48L23.9 548.5L23.91 548.52L23.91 548.54L23.92 548.57L23.92 548.6L23.93 548.64L23.94 548.68L23.95 548.72L23.95 548.76L23.96 548.81L23.97 548.86L23.98 548.91L23.99 548.97L24.01 549.02L24.02 549.09L24.03 549.15L24.04 549.22L24.06 549.29L24.07 549.36L24.08 549.44L24.1 549.52L24.12 549.6L24.13 549.69L24.15 549.78L24.17 549.87L24.19 549.97L24.2 550.06L24.22 550.16L24.24 550.27L24.26 550.38L24.29 550.49L24.31 550.6L24.33 550.71L24.35 550.83L24.38 550.96L24.4 551.08L24.42 551.21L24.45 551.34L24.48 551.47L24.65 551.55L24.83 551.62L25 551.69L25.16 551.76L25.32 551.83L25.48 551.89L25.64 551.95L25.79 552.02L25.93 552.08L26.07 552.13L26.21 552.19L26.35 552.25L26.48 552.3L26.6 552.35L26.72 552.4L26.84 552.45L26.96 552.5L27.07 552.54L27.17 552.59L27.27 552.63L27.37 552.67L27.47 552.71L27.56 552.75L27.64 552.78L27.72 552.81L27.8 552.85L27.88 552.88L27.95 552.91L28.01 552.93L28.07 552.96L28.13 552.98L28.19 553L28.24 553.03L28.28 553.04L28.32 553.06L28.36 553.08L28.4 553.09L28.43 553.1L28.45 553.11L28.47 553.12L28.94 553.32L29.39 553.5L29.83 553.68L30.25 553.85L30.65 554.02L31.04 554.18L31.42 554.33L31.79 554.48L32.15 554.62L32.5 554.75L32.84 554.88L33.17 555.01L33.5 555.14L33.83 555.25L34.15 555.37L34.46 555.48L34.78 555.6L35.1 555.7L35.41 555.81L35.73 555.91L36.05 556.02L36.38 556.12L36.71 556.22L37.04 556.33L37.39 556.43L37.74 556.53L38.1 556.63L38.47 556.74L38.85 556.84L39.24 556.95L39.65 557.06L40.07 557.18L40.51 557.29L40.96 557.41L41.44 557.53L41.93 557.66L42.44 557.79L42.97 557.93L43.52 558.07L44.1 558.21L46.87 558.89L49.77 559.56L52.81 560.22L55.98 560.87L59.28 561.51L62.72 562.14L66.29 562.75L69.99 563.36L73.83 563.96L77.8 564.54L81.91 565.12L86.15 565.69L90.52 566.24L95.03 566.78L99.67 567.32L104.44 567.84L109.35 568.35L114.39 568.86L119.56 569.35L124.87 569.83L130.31 570.3L135.88 570.76L141.59 571.21L147.43 571.65L153.4 572.08L159.51 572.5L165.75 572.91L172.12 573.3L178.63 573.69L185.27 574.07L192.04 574.43L198.94 574.79L205.98 575.13L213.15 575.46L220.46 575.79L227.9 576.1L235.47 576.4L243.17 576.69L251.01 576.97L258.98 577.24L263.81 577.4L268.79 577.55L273.91 577.7L279.18 577.84L284.59 577.98L290.12 578.12L295.77 578.25L301.53 578.38L307.4 578.51L313.37 578.63L319.43 578.75L325.57 578.87L331.8 578.98L338.09 579.09L344.45 579.19L350.86 579.29L357.32 579.38L363.83 579.47L370.37 579.56L376.94 579.64L383.53 579.71L390.14 579.78L396.76 579.85L403.37 579.91L409.98 579.96L416.58 580.01L423.15 580.06L429.7 580.1L436.21 580.13L442.68 580.16L449.11 580.18L455.48 580.2L461.78 580.21L468.02 580.22L474.18 580.22L480.25 580.21L486.24 580.2L492.13 580.18L497.91 580.15L503.58 580.12L507.44 580.09L511.32 580.07L515.22 580.04L519.13 580.01L523.05 579.98L526.97 579.95L530.88 579.91L534.78 579.88L538.67 579.85L542.52 579.81L546.35 579.78L550.14 579.74L553.88 579.7L557.57 579.67L561.21 579.63L564.78 579.59L568.29 579.55L571.71 579.51L575.06 579.47L578.31 579.44L581.47 579.4L584.53 579.36L587.48 579.32L590.31 579.28L593.03 579.24L595.62 579.2L598.07 579.17L600.38 579.13L602.55 579.09L604.56 579.06L606.42 579.02L608.11 578.99L609.62 578.96L610.96 578.92L612.12 578.89L613.08 578.86L613.84 578.83L614.41 578.8L614.76 578.78L614.89 578.75L614.9 578.66L614.91 578.38L614.92 577.92L614.93 577.28L614.94 576.48L614.95 575.5L614.96 574.36L614.98 573.06L614.99 571.61L615.01 569.99L615.02 568.23L615.04 566.32L615.05 564.27L615.07 562.08L615.08 559.76L615.1 557.3L615.12 554.71L615.14 552L615.16 549.17L615.17 546.22L615.19 543.15L615.21 539.98L615.23 536.7L615.25 533.31L615.27 529.83L615.29 526.25L615.31 522.58L615.33 518.82L615.35 514.98L615.37 511.05L615.39 507.05L615.41 502.97L615.43 498.82L615.45 494.61L615.47 490.33L615.49 486L615.51 481.61L615.54 477.16L615.56 472.67L615.57 468.13L615.6 463.56L615.62 458.96L615.65 454.32L615.67 449.67L615.7 445L615.72 440.31L615.74 435.62L615.77 430.93L615.79 426.24L615.82 421.56L615.84 416.89L615.87 412.25L615.89 407.62L615.91 403.03L615.94 398.47L615.96 393.95L615.99 389.48L616.01 385.05L616.03 380.68L616.05 376.37L616.08 372.13L616.1 367.96L616.12 363.86L616.14 359.84L616.16 355.91L616.18 352.08L616.2 348.33L616.22 344.69L616.24 341.16L616.26 337.74L616.28 334.44L616.3 331.25L616.32 328.2L616.33 325.28L616.35 322.5L616.36 319.86L616.38 317.36L616.39 315.02L616.4 312.84L616.42 310.83L616.43 308.83L616.44 306.69L616.45 304.41L616.47 302.01L616.48 299.49L616.49 296.85L616.51 294.09L616.52 291.23L616.54 288.26L616.55 285.19L616.57 282.03L616.58 278.77L616.6 275.43L616.61 272.01L616.63 268.51L616.65 264.94L616.66 261.3L616.68 257.6L616.7 253.84L616.71 250.02L616.73 246.16L616.75 242.26L616.76 238.31L616.78 234.33L616.8 230.32L616.81 226.28L616.83 222.23L616.85 218.15L616.87 214.07L616.88 209.97L616.9 205.88L616.92 201.79L616.93 197.7L616.95 193.63L616.97 189.57L616.98 185.53L617 181.52L617.02 177.54L617.03 173.59L617.05 169.68L617.05 169.16L617.05 168.55L617.05 167.84L617.06 167.04L617.06 166.14L617.06 165.15L617.07 164.07L617.07 162.89L617.07 161.62L617.08 160.25L617.08 158.79L617.09 157.23L617.09 155.58L617.1 153.84L617.11 152L617.11 150.06L617.12 148.04L617.13 145.91L617.13 143.7L617.14 141.39L617.15 138.98L617.16 136.48L617.17 133.89L617.18 131.2L617.19 128.42L617.2 125.54L617.21 122.57L617.22 119.5L617.23 116.34L617.24 113.09L617.25 109.74L617.26 106.3L617.27 102.76L617.28 99.13L617.3 95.41L617.31 91.59L617.32 87.67L617.34 83.66L617.35 79.56L617.36 75.36L617.05 75.35L616.74 75.34L616.44 75.33L616.15 75.32L615.87 75.3L615.59 75.29L615.32 75.28L615.05 75.27L614.79 75.26L614.54 75.25L614.3 75.24L614.06 75.23L613.84 75.22L613.61 75.21L613.4 75.2L613.19 75.2L612.99 75.19L612.8 75.18L612.61 75.17L612.43 75.17L612.26 75.16L612.09 75.15L611.93 75.15L611.78 75.14L611.64 75.13L611.5 75.13L611.37 75.12L611.24 75.12L611.13 75.11L611.02 75.11L610.92 75.11L610.82 75.1L610.73 75.1L610.65 75.09L610.58 75.09L610.51 75.09L610.45 75.09L610.4 75.08L610.35 75.08L610.31 75.08L609.89 75.07L609.21 75.06L608.27 75.05L607.08 75.03L605.65 75.02L603.98 75.01L602.07 74.99L599.94 74.98L597.59 74.96L595.02 74.94L592.24 74.93L589.25 74.91L586.06 74.89L582.68 74.87L579.11 74.85L575.35 74.84L571.41 74.82L567.31 74.8L563.03 74.78L558.59 74.76L554 74.74L549.25 74.72L544.36 74.7L539.33 74.67L534.16 74.65L528.86 74.63L523.44 74.61L517.9 74.59L512.25 74.57L506.49 74.54L500.62 74.52L494.66 74.5L488.61 74.48L482.47 74.46L476.25 74.44L469.96 74.41L463.6 74.39L457.17 74.37L450.68 74.35L444.14 74.33L437.52 74.31L430.8 74.28L423.98 74.26L417.08 74.24L410.1 74.22L403.04 74.19L395.93 74.17L388.77 74.14L381.56 74.12L374.32 74.09L367.05 74.07L359.76 74.04L352.47 74.02L345.17 73.99L337.88 73.97L330.61 73.94L323.36 73.92L316.14 73.89L308.97 73.86L301.85 73.84L294.79 73.81L287.79 73.79L280.87 73.76L274.04 73.74L267.3 73.71L260.66 73.69L254.14 73.66L247.73 73.64L241.45 73.62L235.3 73.59L229.3 73.57L223.45 73.55L217.77 73.52L212.26 73.5L206.92 73.48L201.77 73.46L196.82 73.44L192.08 73.42L187.54 73.4L183.23 73.39L179.03 73.37L174.81 73.35L170.58 73.33L166.35 73.31L162.12 73.3L157.89 73.28L153.67 73.26L149.47 73.25L145.28 73.23L141.11 73.21L136.98 73.2L132.87 73.18L128.8 73.16L124.77 73.15L120.78 73.13L116.84 73.12L112.96 73.1L109.13 73.09L105.37 73.07L101.67 73.06L98.04 73.05L94.49 73.04L91.02 73.02L87.63 73.01L84.33 73L81.13 72.99L78.02 72.98L75.02 72.97L72.12 72.96L69.33 72.95L66.65 72.95L64.1 72.94L61.67 72.93L59.37 72.93L57.2 72.92L55.17 72.92L53.28 72.92L51.54 72.92L49.95 72.91L48.51 72.91L48.33 72.91L48.12 72.91L47.87 72.91L47.59 72.91L47.28 72.91L46.93 72.91L46.56 72.91L46.14 72.91L45.7 72.91L45.22 72.91L44.71 72.91L44.17 72.91L43.59 72.91L42.98 72.91L42.34 72.91L41.67 72.91L40.96 72.91L40.22 72.91L39.44 72.91L38.64 72.91L37.8 72.91L36.92 72.91L36.02 72.91L35.08 72.91L34.11 72.91L33.1 72.91L32.07 72.91L31 72.91L29.89 72.91L28.76 72.91L27.59 72.91L26.39 72.91L25.15 72.91L23.88 72.91L22.58 72.91L21.25 72.91L19.88 72.91L18.48 72.91L17.05 72.91L15.59 72.91L15.27 96.8L15.22 106.57L15.17 116.16L15.13 125.56L15.09 134.79L15.04 143.82L15.01 152.68L14.97 161.35L14.93 169.84L14.9 178.15L14.87 186.27L14.84 194.21L14.81 201.96L14.79 209.54L14.76 216.93L14.74 224.13L14.72 231.15L14.71 237.99L14.69 244.65L14.68 251.12L14.66 257.42L14.66 263.52L14.65 269.45L14.64 275.19L14.64 280.74L14.64 286.12L14.64 291.31L14.64 296.32L14.64 301.14L14.65 305.78L14.66 310.24L14.67 314.52L14.68 318.61L14.69 322.52L14.71 326.24L14.73 329.79L14.75 333.14L14.77 336.32L14.79 339.31L14.82 342.12L14.85 344.75L14.89 348.3L14.94 351.88L14.94 351.88L14.99 355.49L15.04 359.11Z" id="a1B8kAyqQA" fill="white" fill-opacity="1" filter="url(#shadow10653262)"></path></g><use xlink:href="#b40AMjKzqA" opacity="1" fill="#fff9a5" fill-opacity="1"></use><g><use xlink:href="#b40AMjKzqA" opacity="1" fill-opacity="0" stroke="#000000" stroke-width="1" stroke-opacity="0"></use></g></g><g><use xlink:href="#aglTQOfXs" opacity="1" fill="#000000" fill-opacity="0"></use><g><use xlink:href="#aglTQOfXs" opacity="1" fill-opacity="0" stroke="#000000" stroke-width="1" stroke-opacity="0"></use></g></g><g><g><filter id="shadow15482533" x="8.64" y="26.72" width="615.72" height="60.22" filterUnits="userSpaceOnUse" primitiveUnits="userSpaceOnUse"><feFlood></feFlood><feComposite in2="SourceAlpha" operator="in"></feComposite><feGaussianBlur stdDeviation="1"></feGaussianBlur><feOffset dx="0" dy="0" result="afterOffset"></feOffset><feFlood flood-color="#000000" flood-opacity="0.18"></feFlood><feComposite in2="afterOffset" operator="in"></feComposite><feMorphology operator="dilate" radius="0"></feMorphology><feComposite in2="SourceAlpha" operator="out"></feComposite></filter><path d="M617.36 33.72L617.36 79.94L15.64 79.94L15.64 33.72L617.36 33.72Z" id="ahzVwDpzF" fill="white" fill-opacity="1" filter="url(#shadow15482533)"></path></g><use xlink:href="#c53sLMsed" opacity="1" fill="#fbf59e" fill-opacity="1"></use></g></g></g></svg>