<?xml version="1.0" standalone="no"?>
<!DOCTYPE svg PUBLIC "-//W3C//DTD SVG 20010904//EN"
 "http://www.w3.org/TR/2001/REC-SVG-20010904/DTD/svg10.dtd">
<svg version="1.0" xmlns="http://www.w3.org/2000/svg"
 width="1280.000000pt" height="1168.000000pt" viewBox="0 0 1280.000000 1168.000000"
 preserveAspectRatio="xMidYMid meet">
<g transform="translate(0.000000,1168.000000) scale(0.100000,-0.100000)"
fill="#000000" stroke="none">
<path d="M787 10913 c-15 -1124 -19 -4187 -8 -5263 11 -1001 32 -2189 46
-2500 3 -69 10 -246 16 -395 23 -639 64 -1168 110 -1429 l11 -64 76 -35 c121
-56 148 -66 297 -108 685 -194 2048 -329 4085 -404 1203 -44 3227 -71 4650
-61 973 7 2110 22 2116 29 2 1 8 1058 13 2348 6 1289 13 2792 16 3339 3 547 8
1896 12 2996 l6 2002 -134 6 c-74 3 -1495 10 -3159 16 -1664 6 -3896 15 -4960
20 -1064 5 -2217 10 -2561 10 l-626 0 -6 -507z"/>
</g>
</svg>
